<svg width="50" height="50" viewBox="0 0 50 50" fill="none" xmlns="http://www.w3.org/2000/svg">
<path d="M44.637 30.8174C44.3481 30.5344 43.8844 30.5387 43.6011 30.8276L38.2606 36.2742L36.4153 34.3434C36.1358 34.0509 35.6722 34.0404 35.3797 34.32C35.0873 34.5996 35.0768 35.063 35.3562 35.3556L37.7243 37.8333C38.01 38.1325 38.4869 38.1356 38.7768 37.8401L44.647 31.8533C44.9303 31.5644 44.9257 31.1007 44.637 30.8174Z" fill="#080808"/>
<path d="M47.9492 24.6193C46.1229 25.6512 44.401 25.686 42.8314 24.7232C41.581 23.9563 40.8803 22.8332 40.8526 22.7883C40.7412 22.6059 40.5889 22.4549 40.412 22.3435V19.6284C40.412 19.2238 40.0841 18.896 39.6796 18.896C39.2751 18.896 38.9472 19.2238 38.9472 19.6284V22.3426C38.6121 22.5537 38.5592 22.7459 38.2621 23.1293C37.1103 24.6155 35.4347 25.658 33.528 25.3853C32.8465 25.2878 32.1424 25.0328 31.4096 24.6188C30.4945 24.1026 29.3595 24.7668 29.3595 25.8159V33.3982V33.3983C29.3595 35.9056 30.047 38.4475 31.4701 40.6944L20.9384 45.3406V20.9692L38.9469 13.0238V16.2104C38.9469 16.6149 39.2748 16.9428 39.6793 16.9428C40.0838 16.9428 40.4118 16.6149 40.4118 16.2104V11.9C40.4118 11.8996 40.4117 11.8993 40.4117 11.8989C40.4117 11.6019 40.2301 11.3409 39.9714 11.2282C38.9738 10.7944 21.928 3.38143 20.9569 2.95917C20.4796 2.75165 19.932 2.75165 19.4545 2.95917L0.44033 11.2284C0.176269 11.3431 0.000585935 11.61 0 11.8981C0 11.8984 9.76559e-05 11.8987 9.76559e-05 11.899C9.76559e-05 11.8994 0 11.8997 0 11.9V37.2727C0 37.9274 0.38701 38.5212 0.986031 38.7854L19.9104 47.1347C20.1031 47.2198 20.3214 47.2143 20.5017 47.1348L32.338 41.9127C33.7589 43.692 35.5905 45.0731 37.692 45.9364C38.0676 46.0905 38.4948 45.9103 38.648 45.5372C38.8017 45.1631 38.623 44.7351 38.2489 44.5814C33.6221 42.6807 30.825 38.1756 30.8243 33.4001C30.8243 33.3995 30.8243 33.3989 30.8243 33.3983V25.9696C31.2277 26.1889 31.6303 26.3679 32.0312 26.5085C33.9927 27.1969 35.8947 26.9423 37.5984 25.765C38.4204 25.1973 39.1724 24.4258 39.6794 23.6714C39.9315 24.0486 40.7466 25.1631 42.0655 25.9721C43.458 26.8262 45.7026 27.509 48.5349 25.9697V33.3984C48.5349 38.3388 45.6205 42.7284 41.1103 44.5815C40.7361 44.7352 40.5575 45.1631 40.7112 45.5374C40.8649 45.9114 41.2929 46.0902 41.6671 45.9365C44.1104 44.9327 46.1901 43.2309 47.682 41.015C49.1984 38.7626 49.9999 36.1288 49.9999 33.3984V25.816C49.9998 24.7647 48.8625 24.1033 47.9492 24.6193ZM28.2184 7.71462L29.7961 8.40065L13.4498 16.7102C10.5098 15.4131 10.9345 15.6005 9.61881 15.02L25.9394 6.72341L28.2184 7.71462ZM12.7395 17.9981V25.5186L8.64274 23.7111V16.1907L12.7395 17.9981ZM20.0389 4.30272C20.1449 4.25653 20.2667 4.25653 20.373 4.30272L24.1971 5.9658L7.88815 14.2565C6.4741 13.6327 2.7995 12.0115 2.5581 11.9049L20.0389 4.30272ZM19.4735 45.3409L1.57734 37.4452C1.50908 37.4151 1.46494 37.3474 1.46494 37.2727V13.0238L7.1779 15.5444V23.7435C7.1779 24.3039 7.50925 24.8123 8.02194 25.0386L12.6002 27.0585C13.3549 27.3914 14.2044 26.8383 14.2044 26.0127V18.6445L19.4735 20.9692V45.3409ZM20.2061 19.691L15.1805 17.4739L31.5384 9.15836L37.854 11.9049L20.2061 19.691Z" fill="#080808"/>
</svg>
