<svg width="50" height="50" viewBox="0 0 50 50" fill="none" xmlns="http://www.w3.org/2000/svg">
<path fill-rule="evenodd" clip-rule="evenodd" d="M14.2425 48.829C14.2425 49.2409 13.905 49.5733 13.4976 49.5733H6.5702C6.15633 49.5733 5.8252 49.2409 5.8252 48.829V42.7828C5.8252 42.3715 6.15633 42.0378 6.5702 42.0378C6.9777 42.0378 7.31508 42.3715 7.31508 42.7828V48.0841H13.4975C13.9051 48.0841 14.2425 48.4177 14.2425 48.829ZM5.82531 20.164V14.1178C5.82531 13.7071 6.15645 13.3735 6.57031 13.3735H13.4977C13.9052 13.3735 14.2426 13.7071 14.2426 14.1178C14.2426 14.5298 13.9051 14.8627 13.4977 14.8627H7.3152V20.164C7.3152 20.5753 6.9777 20.9088 6.57031 20.9088C6.15633 20.9088 5.82531 20.5753 5.82531 20.164ZM44.1739 14.1178V20.164C44.1739 20.5753 43.8428 20.9088 43.4289 20.9088C43.0151 20.9088 42.6841 20.5752 42.6841 20.164V14.8627H36.5017C36.0878 14.8627 35.7567 14.5298 35.7567 14.1178C35.7567 13.7071 36.0878 13.3735 36.5017 13.3735H43.4291C43.8429 13.3735 44.1739 13.7071 44.1739 14.1178ZM44.1739 42.7828V48.829C44.1739 49.2409 43.8428 49.5733 43.4289 49.5733H36.5016C36.0877 49.5733 35.7566 49.2409 35.7566 48.829C35.7566 48.4177 36.0877 48.084 36.5016 48.084H42.6839V42.7827C42.6839 42.3713 43.015 42.0377 43.4288 42.0377C43.8429 42.0379 44.1739 42.3716 44.1739 42.7828ZM24.9964 9.23941C25.8178 9.23941 26.4863 9.90725 26.4863 10.7274C26.4863 11.5487 25.8178 12.2166 24.9964 12.2166C24.1751 12.2166 23.5129 11.5487 23.5129 10.7274C23.5129 9.90725 24.1751 9.23941 24.9964 9.23941ZM16.9167 4.83078C16.6238 4.53975 16.6238 4.0693 16.9103 3.77896C21.3395 -0.674906 28.5791 -0.706838 33.0826 3.77896C33.5616 4.256 33.2017 5.04918 32.5604 5.04918C32.3694 5.04918 32.1784 4.97725 32.0319 4.83078C28.1501 0.948958 21.8731 0.937367 17.9671 4.83078C17.6744 5.1218 17.2031 5.1218 16.9167 4.83078ZM28.753 8.11112C28.8931 8.25759 29.0841 8.32952 29.2751 8.32952C29.9331 8.32952 30.2779 7.53032 29.8036 7.05805C27.1399 4.40634 22.8645 4.39771 20.1958 7.05873C19.9029 7.34907 19.9029 7.82089 20.1958 8.11123C20.4822 8.40214 20.9534 8.40214 21.2463 8.11123C23.3261 6.03612 26.6727 6.04009 28.753 8.11112ZM25.7413 46.3318L38.2399 39.1179V24.6896L34.5852 26.7977V35.9141C34.5852 36.1802 34.4451 36.4267 34.2159 36.5598L30.5103 38.6971C30.0226 38.9787 29.3961 38.6348 29.3961 38.0516V29.7948L25.7414 31.9028V46.3318H25.7413ZM11.7594 24.6896V39.1179L24.2516 46.3318V31.9028L11.7594 24.6896ZM24.9964 30.6135L12.5043 23.3996L16.1526 21.2909L28.6511 28.5048L24.9964 30.6135ZM30.5103 27.8604L17.6425 20.4313L19.8581 19.1535L33.0952 26.7978V35.4844L30.886 36.7621V28.5048C30.886 28.2386 30.7459 27.9935 30.5103 27.8604ZM37.495 23.3996L24.9964 16.1852L21.3482 18.2934L33.8403 25.5085L37.495 23.3996ZM39.7297 39.5477V23.3996C39.7297 23.1335 39.5833 22.8877 39.3541 22.7546L25.3721 14.6807C25.1429 14.5476 24.8563 14.5476 24.6271 14.6807L10.6387 22.7548C10.4095 22.8878 10.2694 23.1336 10.2694 23.3998V39.5477C10.2694 39.8138 10.4095 40.059 10.6387 40.192L24.6271 48.2667C24.858 48.4 25.1439 48.3984 25.3721 48.2667L39.3542 40.192C39.5834 40.0591 39.7297 39.814 39.7297 39.5477Z" fill="#080808"/>
</svg>
