<svg width="50" height="50" viewBox="0 0 50 50" fill="none" xmlns="http://www.w3.org/2000/svg">
<path d="M20.3125 48.4375C15.3397 48.4375 10.5706 46.4621 7.05425 42.9458C3.53794 39.4294 1.5625 34.6603 1.5625 29.6875C1.5625 24.7147 3.53794 19.9456 7.05425 16.4292C10.5706 12.9129 15.3397 10.9375 20.3125 10.9375C20.5197 10.9375 20.7184 11.0198 20.8649 11.1663C21.0114 11.3128 21.0938 11.5115 21.0938 11.7188C21.0938 11.926 21.0114 12.1247 20.8649 12.2712C20.7184 12.4177 20.5197 12.5 20.3125 12.5C16.9131 12.5 13.5901 13.508 10.7636 15.3966C7.93717 17.2852 5.7342 19.9695 4.43332 23.1101C3.13244 26.2507 2.79207 29.7066 3.45525 33.0406C4.11844 36.3747 5.75539 39.4372 8.1591 41.8409C10.5628 44.2446 13.6253 45.8816 16.9594 46.5447C20.2934 47.2079 23.7493 46.8676 26.8899 45.5667C30.0305 44.2658 32.7148 42.0628 34.6034 39.2364C36.492 36.4099 37.5 33.0869 37.5 29.6875C37.5 29.4803 37.5823 29.2816 37.7288 29.1351C37.8753 28.9886 38.0741 28.9062 38.2812 28.9062C38.4884 28.9062 38.6872 28.9886 38.8337 29.1351C38.9802 29.2816 39.0625 29.4803 39.0625 29.6875C39.0567 34.6585 37.0794 39.4243 33.5644 42.9394C30.0493 46.4544 25.2835 48.4317 20.3125 48.4375Z" fill="#080808"/>
<path d="M14.2191 41.9734C14.1035 41.9734 13.9847 41.9695 13.8566 41.9602C11.5558 41.7969 8.6097 40.175 7.89095 38.0203C7.04095 35.4688 3.5472 31.1625 1.99486 30.3906C1.80941 30.298 1.66836 30.1355 1.60272 29.9389C1.53708 29.7423 1.55224 29.5276 1.64486 29.3422C1.73748 29.1568 1.89997 29.0157 2.09659 28.9501C2.29321 28.8844 2.50785 28.8996 2.6933 28.9922C4.75814 30.0219 8.44173 34.7289 9.37533 37.5258C9.86517 38.9969 12.2472 40.2797 13.9683 40.4016C14.5613 40.4461 15.016 40.3336 15.1222 40.1195C15.3839 39.5961 15.1175 38.5711 14.8589 37.5797C14.4503 36.0102 13.9417 34.057 15.2691 32.7289C17.1691 30.8281 17.366 30.5414 16.1675 29.3414C15.5113 28.6844 13.5808 28.2383 12.0269 27.8789C9.89798 27.3859 8.3597 27.0297 7.89798 26.0492C7.81061 25.8596 7.76825 25.6523 7.77421 25.4436C7.78018 25.2349 7.8343 25.0304 7.93236 24.8461C8.49095 23.7297 9.95736 23.4094 11.3761 23.0984C13.0472 22.7344 14.141 22.4328 14.141 21.6016C14.141 19.7086 11.0316 16.7938 9.94251 15.9227C9.86234 15.8586 9.79556 15.7794 9.74601 15.6895C9.69645 15.5996 9.66508 15.5009 9.65369 15.3989C9.63069 15.1929 9.69046 14.9862 9.81986 14.8242C9.94925 14.6623 10.1377 14.5584 10.3437 14.5354C10.5497 14.5124 10.7564 14.5722 10.9183 14.7016C11.4081 15.0922 15.7035 18.6172 15.7035 21.6016C15.7035 23.7524 13.4902 24.2359 11.7113 24.6258C10.8214 24.8203 9.72923 25.0586 9.39564 25.4492C10.3507 25.8709 11.3533 26.1755 12.3816 26.3563C14.3074 26.8024 16.298 27.2625 17.2714 28.2367C19.6206 30.5859 18.1159 32.0899 16.3738 33.8328C15.7261 34.4805 15.9519 35.5805 16.3738 37.1859C16.705 38.4563 17.0472 39.7703 16.5238 40.818C16.2962 41.2163 15.9561 41.5384 15.546 41.744C15.136 41.9496 14.6743 42.0294 14.2191 41.9734Z" fill="#080808"/>
<path d="M28.0121 46.5625C27.7146 46.4678 27.4252 46.3494 27.1465 46.2086C26.733 46.0309 26.3623 45.7666 26.0595 45.4336C25.7567 45.1006 25.5288 44.7066 25.391 44.2781C25.3013 43.8543 25.3047 43.4161 25.401 42.9938C25.4973 42.5714 25.6843 42.175 25.9488 41.832C27.6176 39.3344 27.6176 36.7969 27.6176 33.2812H29.1801C29.1801 36.9273 29.1801 39.807 27.252 42.6984C27.1155 42.8612 27.0143 43.0505 26.9548 43.2543C26.8952 43.4582 26.8785 43.6722 26.9059 43.8828C27.0874 44.3061 27.4284 44.6407 27.8551 44.8141C28.0578 44.9163 28.2684 45.0023 28.4848 45.0711L28.0121 46.5625Z" fill="#080808"/>
<path d="M30.4692 26.5625C29.3903 26.5632 28.3257 26.3155 27.3579 25.8388C26.39 25.3621 25.5448 24.669 24.8878 23.8132C24.2308 22.9574 23.7795 21.962 23.5689 20.9038C23.3583 19.8457 23.394 18.7532 23.6733 17.7111C23.9526 16.669 24.4679 15.7051 25.1795 14.8941C25.891 14.0831 26.7796 13.4467 27.7766 13.0342C28.7735 12.6217 29.852 12.4442 30.9286 12.5153C32.0051 12.5865 33.0509 12.9044 33.9848 13.4445C34.0782 13.4934 34.1607 13.5606 34.2274 13.6421C34.2941 13.7237 34.3437 13.8179 34.373 13.9191C34.4024 14.0203 34.411 14.1264 34.3983 14.231C34.3855 14.3356 34.3518 14.4365 34.2991 14.5278C34.2464 14.619 34.1757 14.6986 34.0914 14.7618C34.0071 14.825 33.9109 14.8705 33.8086 14.8956C33.7062 14.9207 33.5999 14.9248 33.4959 14.9077C33.3919 14.8906 33.2925 14.8526 33.2036 14.7961C32.0546 14.1325 30.7036 13.9093 29.4022 14.1681C28.1009 14.4268 26.938 15.1498 26.1302 16.2024C25.3224 17.255 24.9248 18.5654 25.0116 19.8893C25.0983 21.2133 25.6634 22.4606 26.6016 23.3988C27.5398 24.337 28.7871 24.9021 30.1111 24.9889C31.4351 25.0756 32.7455 24.6781 33.7981 23.8703C34.8506 23.0625 35.5737 21.8996 35.8324 20.5982C36.0911 19.2969 35.8679 17.9459 35.2044 16.7969C35.1081 16.618 35.0853 16.4087 35.1408 16.2133C35.1962 16.0179 35.3256 15.8518 35.5015 15.7502C35.6774 15.6486 35.8859 15.6195 36.0829 15.669C36.2799 15.7186 36.4498 15.8429 36.5567 16.0156C37.1738 17.0844 37.4986 18.2967 37.4987 19.5308C37.4988 20.7649 37.1741 21.9773 36.5571 23.0461C35.9402 24.115 35.0529 25.0026 33.9842 25.6198C32.9156 26.2371 31.7033 26.5622 30.4692 26.5625Z" fill="#080808"/>
<path d="M30.4684 30.4688C28.76 30.4695 27.0753 30.07 25.5491 29.3023C24.0229 28.5347 22.6978 27.4202 21.6799 26.0482C20.662 24.6762 19.9796 23.0848 19.6875 21.4016C19.3953 19.7184 19.5016 17.9901 19.9976 16.3554C20.4937 14.7206 21.3658 13.2248 22.544 11.9877C23.7223 10.7507 25.1739 9.80686 26.7826 9.23187C28.3913 8.65688 30.1123 8.46672 31.8078 8.67663C33.5032 8.88653 35.1259 9.49067 36.5458 10.4406C36.7179 10.5559 36.8373 10.7349 36.8775 10.9382C36.9177 11.1415 36.8755 11.3524 36.7602 11.5246C36.6449 11.6968 36.4659 11.8161 36.2626 11.8563C36.0593 11.8966 35.8484 11.8544 35.6762 11.7391C33.7399 10.4443 31.3911 9.91624 29.087 10.2575C26.7828 10.5987 24.6879 11.7849 23.2099 13.5852C21.7319 15.3856 20.9765 17.6714 21.0906 19.9979C21.2047 22.3244 22.1802 24.5253 23.8273 26.1724C25.4744 27.8195 27.6752 28.7949 30.0018 28.9091C32.3283 29.0232 34.6141 28.2677 36.4144 26.7898C38.2148 25.3118 39.401 23.2169 39.7422 20.9127C40.0834 18.6085 39.5553 16.2598 38.2606 14.3234C38.2006 14.2383 38.1581 14.142 38.1358 14.0403C38.1135 13.9385 38.1118 13.8333 38.1308 13.7309C38.1497 13.6285 38.189 13.5308 38.2462 13.4438C38.3035 13.3568 38.3776 13.2821 38.4641 13.2241C38.5506 13.1661 38.6479 13.126 38.7502 13.1061C38.8524 13.0863 38.9576 13.0871 39.0596 13.1085C39.1615 13.1299 39.2582 13.1715 39.3438 13.2308C39.4295 13.2902 39.5024 13.366 39.5583 13.4539C40.6603 15.1001 41.2944 17.0148 41.3927 18.9934C41.491 20.972 41.0499 22.9402 40.1164 24.6875C39.1829 26.4349 37.7922 27.8957 36.0929 28.914C34.3935 29.9322 32.4495 30.4696 30.4684 30.4688Z" fill="#080808"/>
<path d="M42.9688 20.3125H34.375C34.1678 20.3125 33.9691 20.2302 33.8226 20.0837C33.6761 19.9372 33.5938 19.7385 33.5938 19.5312C33.5938 19.324 33.6761 19.1253 33.8226 18.9788C33.9691 18.8323 34.1678 18.75 34.375 18.75H42.9688C43.176 18.75 43.3747 18.8323 43.5212 18.9788C43.6677 19.1253 43.75 19.324 43.75 19.5312C43.75 19.7385 43.6677 19.9372 43.5212 20.0837C43.3747 20.2302 43.176 20.3125 42.9688 20.3125Z" fill="#080808"/>
<path d="M30.4688 16.4062C30.2615 16.4062 30.0628 16.3239 29.9163 16.1774C29.7698 16.0309 29.6875 15.8322 29.6875 15.625V7.03125C29.6875 6.82405 29.7698 6.62534 29.9163 6.47882C30.0628 6.33231 30.2615 6.25 30.4688 6.25C30.676 6.25 30.8747 6.33231 31.0212 6.47882C31.1677 6.62534 31.25 6.82405 31.25 7.03125V15.625C31.25 15.8322 31.1677 16.0309 31.0212 16.1774C30.8747 16.3239 30.676 16.4062 30.4688 16.4062Z" fill="#080808"/>
<path d="M26.5625 20.3125H17.9688C17.7615 20.3125 17.5628 20.2302 17.4163 20.0837C17.2698 19.9372 17.1875 19.7385 17.1875 19.5312C17.1875 19.324 17.2698 19.1253 17.4163 18.9788C17.5628 18.8323 17.7615 18.75 17.9688 18.75H26.5625C26.7697 18.75 26.9684 18.8323 27.1149 18.9788C27.2614 19.1253 27.3438 19.324 27.3438 19.5312C27.3438 19.7385 27.2614 19.9372 27.1149 20.0837C26.9684 20.2302 26.7697 20.3125 26.5625 20.3125Z" fill="#080808"/>
<path d="M30.4688 32.8125C30.2615 32.8125 30.0628 32.7302 29.9163 32.5837C29.7698 32.4372 29.6875 32.2385 29.6875 32.0312V23.4375C29.6875 23.2303 29.7698 23.0316 29.9163 22.8851C30.0628 22.7386 30.2615 22.6562 30.4688 22.6562C30.676 22.6562 30.8747 22.7386 31.0212 22.8851C31.1677 23.0316 31.25 23.2303 31.25 23.4375V32.0312C31.25 32.2385 31.1677 32.4372 31.0212 32.5837C30.8747 32.7302 30.676 32.8125 30.4688 32.8125Z" fill="#080808"/>
<path d="M30.4686 20.3125C30.3141 20.3125 30.1631 20.2666 30.0346 20.1808C29.9062 20.0949 29.8061 19.9729 29.747 19.8302C29.6878 19.6874 29.6724 19.5304 29.7025 19.3789C29.7326 19.2273 29.807 19.0882 29.9162 18.9789L37.4998 11.3953V7.03124C37.4999 6.82405 37.5822 6.62537 37.7287 6.47889L42.4162 1.79139C42.5255 1.68217 42.6647 1.60779 42.8162 1.57766C42.9677 1.54752 43.1248 1.563 43.2675 1.62211C43.4103 1.68123 43.5323 1.78134 43.6181 1.90978C43.704 2.03823 43.7498 2.18924 43.7498 2.34374V6.24999H47.6561C47.8106 6.25002 47.9616 6.29586 48.09 6.3817C48.2185 6.46755 48.3186 6.58955 48.3777 6.73229C48.4368 6.87502 48.4523 7.03208 48.4222 7.1836C48.392 7.33513 48.3177 7.47432 48.2084 7.58358L43.5209 12.2711C43.3744 12.4176 43.1758 12.4999 42.9686 12.5H38.6045L31.0209 20.0836C30.8744 20.2301 30.6758 20.3124 30.4686 20.3125ZM40.167 10.9375H42.6451L45.7701 7.81249H43.292L40.167 10.9375ZM39.0623 7.35467V9.8328L42.1873 6.7078V4.22967L39.0623 7.35467Z" fill="#080808"/>
</svg>
