<svg width="1420" height="847" viewBox="0 0 1420 847" fill="none" xmlns="http://www.w3.org/2000/svg">
<path d="M885.023 468.77C873.976 476.501 859.535 478.812 846.745 474.892C845.31 474.457 843.752 473.819 843.098 472.418C842.115 470.325 843.684 467.961 843.97 465.651C844.783 459.016 835.654 456.154 832.744 450.187C831.595 447.83 831.502 445.092 831.309 442.463C829.535 419.121 817.782 398.09 807.879 377.034C807.164 375.503 806.435 373.838 806.735 372.156C807.035 370.483 808.893 369.036 810.337 369.863C809.26 373.829 811.615 378.457 815.382 379.788C817.103 372.997 818.037 364.078 812.156 360.584C810.155 359.395 807.758 359.184 805.448 359.068C796.367 358.601 787.237 359.129 778.268 360.639C776.765 360.889 775.125 361.144 773.825 360.343C772.667 359.636 772.073 358.273 771.26 357.163C769.057 354.115 763.185 352.457 760.065 355.116C756.606 358.07 759.246 364.496 752.62 365.392C748.861 365.896 745.259 363.898 741.966 361.961C738.44 359.891 734.838 357.754 732.267 354.518C731.356 353.358 730.552 352.059 729.335 351.268C726.989 349.743 723.973 350.569 721.207 350.537C718.44 350.514 715.062 348.429 715.808 345.675C716.041 344.819 716.643 344.135 717.117 343.387C720.598 337.866 715.99 329.999 709.922 328.002C703.848 326.004 697.289 327.993 691.206 329.976C682.094 332.954 672.973 335.935 663.852 338.904C660.407 340.032 656.799 341.169 653.242 340.499C650.198 339.922 647.003 338.057 644.219 339.458C640.444 341.354 641.055 347.174 638.776 350.821C636.595 354.307 631.948 355.426 629.7 358.871C627.098 362.86 628.646 368.19 628.377 372.994C627.844 382.259 620.481 389.29 614.008 395.721C607.533 402.147 600.963 410.524 602.625 419.646C603.135 422.447 604.414 425.091 604.604 427.93C604.756 430.287 604.153 432.613 603.55 434.883C601.656 442.062 599.761 449.242 597.857 456.421C604.226 468.066 611.27 479.319 618.942 490.091C622.723 495.403 626.74 500.686 631.978 504.441C637.212 508.205 643.897 510.307 650.061 508.611C652.819 507.848 655.398 506.364 658.24 506.059C662.203 505.633 666.097 507.561 670.066 507.381C674.705 507.178 678.735 504.183 682.463 501.321C686.191 498.459 690.245 495.496 694.884 495.354C699.531 495.215 704.532 499.384 703.545 504.073C703.326 505.099 702.847 506.117 702.99 507.161C703.29 509.394 706.087 510.162 708.237 509.86C710.395 509.556 712.697 508.733 714.65 509.721C717.313 511.075 717.613 514.955 716.733 517.886C715.539 521.862 712.966 525.214 711.259 528.977C709.552 532.75 708.845 537.525 711.273 540.84C712.529 542.559 714.437 543.617 715.996 545.047C718.589 547.419 720.139 550.771 721.395 554.108C726.793 568.388 727.987 584.31 724.988 599.312C723.657 605.938 719.581 611.346 718.297 617.467C716.854 624.374 722.177 632.089 725.296 637.712C730.056 646.274 732.876 655.991 733.475 665.843C733.708 669.772 733.641 673.887 735.379 677.387C736.688 680.008 738.883 682.014 740.696 684.293C747.628 693.044 748.5 705.185 749.071 716.488C750.529 718.503 753.545 718.48 755.748 717.413C757.951 716.34 759.726 714.496 761.87 713.307C767.246 710.32 773.816 711.874 779.877 711.167C790.312 709.946 799.47 701.033 801.275 690.33C801.779 687.358 801.785 684.241 803.027 681.519C804.885 677.413 809.35 674.626 809.95 670.132C810.183 668.352 809.754 666.499 810.129 664.742C811.318 659.195 819.52 657.452 820.229 651.815C820.573 649.11 818.973 646.611 817.958 644.091C814.942 636.61 817.485 627.157 823.791 622.358C826.151 620.561 828.912 619.395 831.317 617.67C842.911 609.348 842.656 591.295 837.767 577.598C835.858 572.254 833.406 566.858 833.759 561.171C833.991 557.422 835.443 553.867 837.134 550.547C841.383 542.194 847.269 534.736 854.33 528.763C858.933 524.874 864.219 521.375 866.843 515.86C868.452 512.493 868.903 508.657 870.159 505.134C872.443 498.709 877.225 493.655 880.956 488.006C884.692 482.367 887.459 475.132 885.023 468.77ZM817.412 607.855C817.095 610.203 814.539 612.404 812.576 611.183C812.501 604.906 811.2 598.724 809.9 592.586C809.275 589.645 808.652 586.705 808.027 583.774C807.741 582.405 807.335 580.88 806.155 580.219C805.305 579.743 804.224 579.822 803.447 579.239C802.281 578.36 802.365 576.47 801.395 575.356C800.131 573.909 797.763 574.423 796.162 573.387C794.576 572.361 794.2 570.183 793.981 568.255L791.568 546.998C791.478 546.181 791.394 545.288 791.817 544.58C792.283 543.794 793.216 543.49 794.051 543.165C797.639 541.756 800.675 538.888 802.337 535.31C803.043 533.785 803.526 532.138 804.487 530.775C807.982 525.875 812.666 527.336 813.067 532.144C813.622 538.824 811.06 537.978 807.444 540.326C804.669 542.124 799.896 545.148 797.984 548.144C795.105 552.664 797.662 553.931 799.646 558.324C801.482 562.398 799.73 567.884 802.617 571.25C804.481 573.437 807.618 573.825 810 575.388C813.723 577.83 815.099 582.77 815.346 587.311C815.595 591.861 815.023 596.506 816.128 600.916C816.7 603.218 817.728 605.506 817.412 607.855Z" fill="black" fill-opacity="0.3"/>
<path d="M853.502 617.55C851.14 622.024 855.969 627.211 855.579 632.294C855.179 637.502 849.539 640.773 848.39 645.858C847.916 647.952 848.261 650.147 848.729 652.243C849.629 656.259 850.98 660.165 852.751 663.856C853.32 665.045 853.951 666.234 854.887 667.141C857.777 669.937 862.766 668.997 865.572 666.115C868.378 663.233 869.46 659.026 870.049 654.978C870.637 650.933 870.87 646.754 872.428 642.991C874.696 637.519 879.722 632.9 879.436 626.956C879.293 623.987 877.791 621.285 877.129 618.391C876.465 615.497 877.028 611.82 879.649 610.602C879.932 612.502 880.218 614.398 880.501 616.297C887.946 613.891 878.816 588.435 870.727 601.315C867.433 606.56 870.693 610.092 864.154 612.803C860.63 614.265 855.63 613.525 853.502 617.55Z" fill="black" fill-opacity="0.3"/>
<path d="M1419.93 163.758C1419.73 162.897 1419.07 162.213 1418.41 161.604C1413.92 157.344 1408.92 153.665 1403.55 150.725C1406.94 150.42 1410.44 150.09 1413.46 148.416C1416.48 146.77 1418.9 143.421 1418.46 139.921C1417.7 133.936 1409.51 130.462 1410.35 124.501C1410.74 121.813 1412.99 119.099 1411.77 116.689C1410.91 115.042 1408.85 114.61 1407.04 114.355C1397.57 113.036 1388.11 111.716 1378.62 110.423C1379.04 114.152 1378.03 118.31 1375.11 120.569C1372.17 122.802 1367.22 122.065 1365.82 118.591C1365.36 117.374 1365.31 115.953 1364.5 114.915C1362.81 112.682 1359.4 113.975 1356.8 115.016C1351.24 117.249 1344.86 117.249 1339.3 114.99C1338.22 114.535 1337.04 113.926 1336.6 112.81C1335.94 111.163 1337.04 109.362 1337.14 107.585C1337.29 104.543 1334.25 102.183 1331.3 101.904C1328.39 101.652 1325.54 102.867 1322.72 103.806C1314.56 106.547 1304.88 106.9 1298.16 101.371C1296.17 99.747 1294.53 97.668 1292.4 96.2733C1289.38 94.2958 1285.68 93.8899 1282.12 93.51C1272.98 92.5474 1263.86 91.5818 1254.71 90.6191C1253.83 90.5176 1252.83 90.4683 1252.09 90.9989C1250.91 91.8862 1251.11 93.7391 1250.72 95.1831C1249.98 97.9986 1246.89 99.4687 1244.1 99.6716C1241.28 99.8746 1238.43 99.1903 1235.64 99.5209C1233.55 99.7499 1231.52 100.562 1229.43 100.434C1227.33 100.307 1225.04 98.7843 1225.09 96.6299C1222.47 98.3291 1220.73 101.423 1220.63 104.644C1215.31 105.253 1208.62 101.321 1209.77 95.8935C1210.09 94.4988 1210.87 93.2548 1211 91.8369C1211.71 83.0106 1190.62 81.0592 1185.87 84.8634C1184.57 85.9044 1183.56 87.2991 1182.34 88.4125C1177.16 93.078 1167.9 91.2281 1164.76 84.8867C1157.31 83.924 1149.73 83.9733 1142.25 84.9881C1139.21 79.6616 1131.32 82.1726 1126.27 85.4956C1121.22 88.8185 1113.86 92.0892 1110.01 87.3484C1122.76 84.356 1134.85 78.3713 1145.12 70.0002C1146.15 69.1622 1147.28 68.0227 1147.03 66.6512C1146.89 65.7117 1146.1 65.0535 1145.34 64.4968C1140.61 61.0985 1134.8 59.2978 1129.04 59.4486C1124.82 59.5501 1119.82 60.3359 1117.15 56.9898C1115.48 54.934 1115.31 51.7647 1113.27 50.0656C1111.34 48.4418 1108.57 48.8217 1106.12 49.2537C1100.7 50.2685 1095.25 51.2834 1089.84 52.2954C1089 52.4461 1088.07 52.6491 1087.48 53.2841C1086.72 54.1453 1086.77 55.4646 1086.7 56.6563C1086.23 64.0619 1077.23 69.2869 1070.86 65.8364C1068.87 64.7462 1067.18 63.0209 1065.02 62.3366C1062.3 61.4986 1059.38 62.4642 1056.71 63.4268C1045.46 67.4602 1034.23 71.4906 1023 75.5239C1026.02 77.6551 1029.97 78.3394 1033.5 77.3738C1034.55 79.3282 1031.8 81.0505 1029.69 81.5086C1021.11 83.3615 1012.56 85.2114 1003.98 87.0381C1008.88 90.8917 1013.64 94.9772 1018.2 99.2628C1020.4 97.6651 1022.49 101.823 1021.65 104.488C1020.84 107.15 1019.3 110.446 1021.26 112.349C1018.64 111.435 1016.38 109.432 1015.11 106.845C1016.48 105.804 1017.8 104.74 1019.18 103.676C1016.19 104.311 1012.9 102.281 1011.99 99.2628C1006.52 98.1725 1001.3 95.7369 996.916 92.1878C996.033 94.319 997.235 97.1084 999.369 97.8942C997.359 98.1725 995.324 98.4277 993.314 98.6799C993.976 101.927 996.795 104.563 999.982 104.943C995.963 106.007 991.475 105.018 988.19 102.383C991.181 97.7173 986.791 90.3118 981.398 90.97C984.487 91.402 985.003 95.9921 983.655 98.8829C982.281 101.8 979.879 104.412 979.93 107.634C979.977 111.592 983.534 116.333 980.566 118.844C984.171 121.964 990.887 116.283 993.903 119.986C994.833 121.152 994.931 122.749 995.324 124.196C996.501 128.534 1001.11 131.55 1005.4 130.79C1002.93 134.846 997.039 130.842 994.343 126.936C991.671 123.031 985.639 119.151 983.31 123.283C982.55 124.652 982.696 126.301 982.696 127.847C982.548 139.132 969.752 148.086 959.577 144.003C963.451 139.057 972.546 141.011 975.512 135.455C976.712 133.173 976.395 130.384 976.028 127.821C974.825 119.453 973.651 111.081 972.448 102.713C973.16 98.8597 973.429 94.9018 973.259 90.9961C968.992 92.5444 962.128 92.3415 962.276 87.6732C958.649 93.887 955.019 100.075 951.392 106.288C949.186 110.017 947.518 115.901 951.294 117.852C953.82 116.788 956.763 118.992 957.472 121.732C958.206 124.446 957.276 127.337 956.073 129.874C950.63 114.303 923.099 121.479 915.94 106.668C912.655 107.988 915.645 113.213 918.956 114.454C922.291 115.698 926.849 117.901 925.624 121.326C924.693 124.014 921.114 124.014 918.367 123.811C910.423 123.228 902.309 125.13 895.346 129.186C894.732 126.296 894.096 123.431 893.482 120.563C887.697 124.799 881.886 129.033 876.1 133.295C873.281 135.348 870.29 137.479 866.856 137.859C863.425 138.213 859.476 136.085 859.036 132.559C858.596 129.007 863.571 125.913 865.777 128.653C866.733 122.161 858.153 116.733 853.004 120.589C856.412 126.574 856.51 134.435 853.2 140.498C851.975 142.754 850.086 144.885 847.633 145.291C845.158 145.671 842.313 143.464 842.829 140.93C839.689 143.795 837.926 148.182 838.145 152.493C833.046 154.219 826.967 152.163 823.802 147.648C824.194 150.159 824.587 152.644 824.979 155.155C821.302 159.238 813.26 156.298 812.893 150.716C812.795 149.069 813.212 147.445 813.212 145.795C813.212 140.164 808.408 135.98 804.043 132.608C810.566 135.168 817.136 137.732 823.656 140.292C827.334 141.736 831.255 143.209 835.106 142.446C840.746 141.33 844.373 133.495 839.373 129.436C830.375 122.158 820.004 116.678 809.022 113.407C805.86 112.467 802.477 111.708 799.363 112.749C796.812 113.587 793.406 115.26 792.033 112.9C794.583 113.279 797.327 112.264 799.068 110.261C793.748 109.043 788.355 108.257 782.912 107.979C776.636 113.737 772.37 121.903 774.183 130.12C776.978 142.777 792.865 153.375 787.054 164.866C792.523 163.599 798.233 162.355 803.651 163.776C806.569 164.512 809.389 166.287 811.301 168.67C811.275 168.542 811.301 168.418 811.326 168.29C812.943 167.733 814.684 167.151 816.352 167.632C817.994 168.087 819.342 170.091 818.51 171.665C817.946 172.756 816.475 173.669 816.991 174.785C817.333 175.496 818.241 175.597 818.953 175.826C820.962 176.461 822.089 179.149 821.159 181.101C818.266 180.924 815.373 180.77 812.481 180.645C811.5 182.826 810.177 184.905 809.243 187.088C805.344 196.193 808.189 206.64 808.509 216.583C808.654 221.68 807.528 227.36 805.078 231.774C805.666 231.646 806.255 231.521 806.844 231.42C817.753 229.492 830.207 232.359 836.9 241.487C843.569 250.618 841.338 266.316 831.09 270.602C827.191 272.226 822.656 272.174 819.101 274.482C817.655 275.395 816.576 277.019 816.085 278.718C822.706 274.838 829.52 271.109 836.999 269.665C835.356 273.319 832.096 276.105 828.343 277.071C829.593 277.909 829.175 280.089 827.925 280.924C826.675 281.762 825.032 281.609 823.586 281.304C822.115 281 820.595 280.594 819.149 280.974C817.874 281.304 816.87 282.316 816.38 283.56C816.136 284.12 816.012 284.726 816.012 285.335C816.012 285.767 816.085 286.147 816.209 286.553C820.009 283.256 826.089 283.154 829.963 286.376C831.46 287.617 832.634 289.24 834.229 290.357C835.995 291.575 838.299 292.131 839.647 293.857C840.97 295.608 840.04 299.108 837.957 298.65C837.884 299.74 838.986 300.526 840.017 300.729C841.046 300.932 842.176 300.856 843.106 301.337C845.265 302.503 844.872 306.104 842.983 307.679C841.096 309.25 838.473 309.378 836.046 309.404C829.671 309.506 823.076 309.555 817.243 306.867C814.496 305.623 812.021 303.773 809.176 302.732C806.356 301.691 802.925 301.59 800.618 303.593C799.539 304.533 798.83 305.849 797.798 306.864C795.323 309.323 791.13 309.653 788.335 307.601C786.031 305.875 784.902 302.68 785.443 299.789C782.797 302.552 780.54 305.748 778.92 309.224C780.319 313.333 781.715 317.491 783.113 321.6C783.579 322.945 784.022 324.262 784.487 325.581C785.835 329.614 788.041 334.332 792.136 334.61C797.333 334.967 802.53 327.663 806.65 334.256C807.435 335.524 807.679 337.046 807.679 338.568C807.654 341.561 811.626 345.315 813.759 342.981C813.515 340.827 813.293 338.519 814.249 336.564C815.205 334.636 817.829 333.445 819.496 334.79C820.623 335.703 820.845 337.35 820.918 338.797C821.016 340.952 820.918 343.135 820.649 345.263C820.012 350.361 818.05 355.661 813.882 358.401C810.622 360.532 805.964 362.055 808.61 366.566C809.223 367.555 811.699 366.416 812.385 367.378C813.93 369.611 812.851 371.968 813.072 374.607C813.49 380.212 819.642 383.027 823 387.441C827.659 393.527 826.678 402.252 828.982 409.657C833.666 424.799 852.101 434.512 851.07 450.361C850.652 456.523 847.734 464.259 852.639 467.811C855.924 470.169 860.412 468.495 864.039 466.747C870.831 463.499 877.645 460.229 884.462 456.958C887.231 455.639 890.174 454.143 891.596 451.327C892.33 449.857 892.577 448.132 893.605 446.865C895.125 445.012 897.748 444.759 899.979 444C905.005 442.248 908.363 437.354 910.889 432.512C913.61 427.261 915.743 421.682 917.263 415.926C917.655 414.404 918.022 412.806 917.655 411.261C916.332 405.656 906.844 405.122 906.353 399.367C906.157 396.957 907.775 394.826 908.534 392.544C909.294 390.262 908.461 386.89 906.132 386.913C904.733 391.172 903.214 395.612 900.1 398.732C896.961 401.878 891.666 403.194 888.235 400.431C885.684 398.401 884.852 394.878 883.111 392.086C880.462 387.774 875.658 385.161 873.354 380.647C871.05 376.132 874.433 368.524 878.993 370.478C881.224 379.026 886.887 386.533 894.39 390.842C899.024 389.218 903.486 387.038 907.654 384.35C909.737 382.624 912.484 385.846 912.705 388.586C912.926 391.349 912.509 394.698 914.667 396.296C915.772 397.134 917.24 397.183 918.614 397.183C929.843 397.183 941.046 395.838 951.956 393.176C949.724 399.923 955.731 408.036 962.621 407.532C961.789 410.295 959.115 412.351 956.32 412.377C957.668 415.091 959.089 417.93 961.491 419.756C963.894 421.557 967.549 421.963 969.657 419.809C971.644 417.805 971.913 414.076 974.486 412.96C977.477 411.667 980.443 415.546 980.199 418.895C979.955 422.244 977.92 425.109 976.841 428.278C974.66 434.744 976.695 441.845 978.705 448.364C982.604 460.942 986.648 473.851 994.615 484.2C997.482 481.41 1000.35 478.647 1003.22 475.855C1007.09 476.539 1007.22 482.298 1005.99 486.125C1004.74 490.005 1003.59 495.204 1006.95 497.309C1009.96 499.185 1014.01 496.169 1014.67 492.617C1015.33 489.042 1013.76 485.516 1012.24 482.245C1010.26 478.061 1008.29 473.851 1006.33 469.641C1005.64 468.194 1004.93 466.648 1005.06 465.025C1005.15 463.63 1005.82 462.386 1006.38 461.119C1008.14 457.036 1008.71 452.368 1007.92 447.958C1018.44 442.428 1027.24 433.451 1032.66 422.595C1033.49 420.971 1034.28 419.249 1035.72 418.156C1040.04 414.908 1047.29 419.475 1051.12 415.595C1056.44 417.648 1060.93 421.859 1063.45 427.136C1065.29 430.989 1067.01 436.113 1071.15 436.443C1064.8 439.131 1060.49 446.285 1060.98 453.36C1067.38 455.033 1074.44 448.77 1073.8 441.996C1076.3 440.526 1079.61 442.327 1080.93 444.962C1082.25 447.601 1082.11 450.744 1081.94 453.687C1081.45 462.638 1080.93 471.566 1080.44 480.494C1080.29 483.156 1080.2 486.023 1081.62 488.23C1082.97 490.309 1085.52 491.478 1086.45 493.809C1087.85 497.233 1085.05 501.545 1086.86 504.763C1087.85 506.463 1089.78 507.222 1091.28 508.414C1094.46 510.951 1095.54 515.387 1097.85 518.812C1100.15 522.236 1105.47 524.466 1107.97 521.195C1102.65 516.884 1099.24 510.136 1098.9 503.14C1098.83 501.542 1098.88 499.869 1098.24 498.422C1097.45 496.595 1095.76 495.404 1094.34 494.061C1086 486.174 1087.04 472.555 1088.73 460.991C1092.6 466.849 1098.8 470.983 1105.57 472.201C1103.39 476.843 1105.27 483.054 1109.61 485.591C1109.91 481.051 1113.19 476.893 1117.43 475.701C1119.27 475.167 1121.24 475.141 1122.98 474.355C1128.2 472.021 1128.76 464.717 1128.49 458.86C1128.39 456.552 1128.27 454.143 1127.07 452.217C1125.06 449.048 1120.99 448.311 1117.8 446.435C1112.09 443.089 1109.3 435.2 1111.6 428.809C1113.88 422.444 1120.97 418.336 1127.41 419.678C1129.55 420.641 1128.59 424.141 1126.73 425.587C1124.86 427.031 1122.31 427.896 1121.46 430.151C1120.23 433.245 1123.86 436.696 1127.02 435.985C1130.19 435.301 1132.22 431.827 1132.44 428.478C1132.64 425.129 1131.46 421.885 1130.28 418.739C1137.1 420.284 1144.6 417.799 1149.28 412.476C1150.61 410.979 1151.78 409.228 1153.48 408.216C1156.79 406.212 1161.52 407.303 1164.24 404.487C1166.32 402.333 1166.18 398.882 1166.81 395.916C1168.02 390.387 1172.13 386.153 1174.59 381.105C1176.99 376.057 1179.39 368.298 1178.09 362.719C1177.16 358.662 1175.13 354.983 1173.73 351.077C1172.72 348.314 1172.04 345.446 1171.67 342.506C1171.52 341.314 1171.43 339.995 1171.96 338.931C1172.92 337.028 1175.27 336.573 1177.04 335.457C1179.66 333.784 1181.03 330.258 1180.25 327.19C1172.97 329.701 1164.44 327.799 1158.82 322.371C1160.44 319.124 1164.05 317.604 1167.16 315.879C1170.3 314.18 1173.56 311.39 1173.41 307.714C1175.39 307.714 1177.36 307.714 1179.32 307.688C1179.46 311.034 1177.95 314.409 1175.4 316.462C1178.09 318.871 1182.14 316.589 1185.33 314.864C1188.49 313.139 1193.79 313.139 1194.18 316.815C1194.54 320.341 1189.37 322.725 1190.08 326.199C1193.71 324.931 1197.58 329.927 1195.62 333.326C1195.09 334.239 1194.23 335.126 1194.37 336.19C1194.54 337.484 1196.02 337.991 1197.12 338.626C1200.18 340.299 1201.51 344.663 1199.94 347.858C1202.07 346.133 1204.2 344.434 1206.34 342.712C1206.83 344.741 1209.03 346.11 1211.02 345.652C1212.98 345.17 1214.36 342.888 1213.91 340.859C1213.5 338.855 1211.71 337.46 1211.12 335.532C1210.24 332.615 1212.25 329.371 1211.27 326.477C1210.51 324.221 1208.18 323.029 1206.29 321.608C1204.4 320.188 1202.71 317.627 1203.84 315.522C1204.52 314.229 1206 313.695 1207.19 312.936C1213.2 309.082 1214.48 298.099 1221.54 297.846C1222.96 297.794 1224.36 298.252 1225.75 298.049C1229.77 297.467 1231.17 292.418 1233.06 288.69C1237.23 280.397 1246.94 276.363 1251.33 268.172C1254.68 261.883 1254.29 254.199 1256.28 247.275C1257.72 242.253 1260.47 237.028 1258.78 232.084C1256.67 225.922 1247.03 224.704 1243.55 230.182C1244.12 227.088 1244.68 223.994 1245.27 220.874C1243.16 227.9 1229.16 221.558 1241.35 214.686C1249.49 210.122 1256.77 203.856 1262.63 196.451C1264.61 193.94 1266.5 191.226 1269.1 189.399C1278.69 182.704 1291.87 190.997 1303.1 188.08C1303.5 189.222 1303.86 190.362 1304.25 191.504C1301.24 192.797 1298.25 194.117 1295.26 195.41C1301.58 198.478 1308.4 191.2 1315.39 191.504C1317.42 191.58 1320.36 191.606 1320.48 189.527C1318.59 189.222 1316.17 188.158 1316.51 186.23C1316.64 185.52 1317.13 184.963 1317.62 184.455C1319.43 182.452 1321.27 180.474 1323.11 178.471C1326.17 175.122 1331.12 171.573 1334.63 174.463C1337.28 176.67 1336.05 181.97 1332.72 182.707C1334.9 184.966 1338.6 182.91 1340.79 180.628C1342.97 178.369 1345.79 175.632 1348.68 176.798C1349.49 175.125 1349.49 173.069 1348.73 171.396C1351.06 170.05 1353.93 169.749 1356.45 170.558C1354.91 171.903 1353.85 173.855 1353.53 175.934C1353.31 177.279 1353.41 178.648 1353.02 179.941C1351.62 184.76 1345.39 185.317 1341.01 187.523C1333.26 191.403 1330.56 201.676 1323.6 206.875C1321.88 208.168 1319.95 209.134 1318.52 210.755C1315.46 214.254 1315.85 219.706 1317.27 224.197C1318.74 228.686 1321.07 232.997 1321.34 237.715C1321.39 238.602 1321.37 239.489 1321.29 240.353C1320.97 243.5 1324.7 245.248 1326.84 243.015C1327.35 242.459 1327.86 241.925 1328.38 241.392C1330.86 238.753 1333.43 236.042 1334.68 232.591C1335.54 230.156 1335.93 227.189 1338.11 225.922C1339.71 224.983 1341.69 225.389 1343.51 225.061C1345.32 224.757 1347.26 222.855 1346.35 221.181C1343.38 219.001 1343.9 213.498 1347.18 211.9C1348.56 212.558 1349.93 213.245 1351.3 213.93C1354.56 212.381 1349.63 206.855 1351.42 203.633C1352.11 202.389 1353.75 201.63 1353.7 200.209C1353.65 198.434 1351.23 198.13 1349.53 198.408C1348.41 192.652 1352.26 186.337 1357.75 184.916C1357.65 186.108 1357.55 187.326 1357.45 188.518C1360.17 186.743 1362.9 184.966 1365.62 183.165C1366.11 184.534 1366.57 185.905 1367.04 187.3C1370.3 189.048 1372.85 181.364 1376.23 182.785C1376.97 183.116 1377.46 183.8 1378.07 184.308C1380.5 186.36 1384.86 184.789 1385.53 181.62C1388.05 169.598 1402.17 169.041 1414.01 168.026C1416.76 167.791 1420.57 166.548 1419.93 163.758ZM897.14 310.523C895.155 312.376 892.285 312.881 889.639 312.452C889.003 313.008 889.468 314.151 890.177 314.606C890.889 315.061 891.772 315.189 892.383 315.798C893.488 316.888 893.045 318.764 893.216 320.312C893.535 322.849 895.618 324.775 896.181 327.237C897.188 331.676 892.551 335.758 888.139 335.782C878.92 335.857 872.448 328.124 870.071 319.805C868.698 315.061 866.074 302.155 873.135 301.419C871.002 298.528 873.233 295.332 871.91 292.239C871.176 290.566 869.359 289.754 868.134 288.408C865.682 285.72 866.052 281.18 868.134 278.161C870.217 275.143 873.553 273.368 876.885 272.023C880.145 270.703 883.823 269.689 887.035 271.06C890.273 272.429 892.207 277.172 889.804 279.785C887.206 282.6 881.886 280.977 879.509 284.021C878.012 285.897 878.528 288.866 880.025 290.742C881.544 292.618 883.8 293.659 885.981 294.547C887.206 295.054 888.532 295.637 889.022 296.881C889.782 298.734 888.238 300.61 887.256 302.332C886.301 304.083 886.497 307.125 888.434 307.125C890.32 307.099 890.617 304.336 891.671 302.712C893.143 300.43 896.941 300.784 898.413 303.092C899.862 305.377 899.102 308.697 897.14 310.523ZM1127.28 221.837C1126.86 222.675 1126.34 223.51 1126.07 224.423C1125.78 225.438 1125.78 226.528 1125.53 227.543C1124.8 230.585 1122.08 232.565 1119.63 234.415C1117.91 235.682 1116.22 237.103 1115.19 239.005C1114.77 239.791 1114.48 240.652 1114.01 241.441C1111.58 245.677 1104.3 246.538 1108.89 240.629C1111.71 236.952 1115.92 231.55 1119.43 228.355C1120.63 227.265 1122.1 226.351 1122.91 224.931C1124.23 222.596 1123.5 219.68 1123.6 216.992C1123.67 214.304 1125.66 211.082 1128.16 211.845C1129.09 215.116 1128.77 218.766 1127.28 221.837ZM813.784 175.02C813.809 175.298 813.809 175.577 813.784 175.881C813.711 176.922 813.49 177.911 813.17 178.874C813.563 178.9 813.93 178.9 814.224 178.874C814.816 177.58 814.448 176.313 813.784 175.02ZM794.637 239.362C799.295 239.008 802.777 235.964 805.081 231.779C800.669 232.867 796.33 235.099 794.637 239.362Z" fill="black" fill-opacity="0.3"/>
<path d="M831.093 270.606C827.194 272.23 822.659 272.178 819.104 274.486C817.658 275.399 816.579 277.023 816.088 278.722C815.5 279.053 814.911 279.407 814.323 279.737C803.977 285.823 807.85 272.433 798.166 272.509C788.728 272.584 791.45 288.943 787.231 287.497C786.152 289.981 787.918 292.951 787.159 295.56C786.889 296.474 786.348 297.259 785.956 298.121C785.712 298.654 785.538 299.211 785.44 299.794C782.794 302.557 780.538 305.752 778.918 309.229C778.794 308.849 778.674 308.492 778.55 308.113C776.246 305.755 772.028 308.263 771.294 311.511C770.556 314.755 771.93 318.078 772.863 321.274C773.794 324.469 774.113 328.375 771.809 330.732C770.607 331.976 768.647 332.837 770.388 335.679C771.002 336.72 772.227 337.126 773.404 336.946C775.904 336.566 778.038 341.359 775.588 341.51C771.078 342.067 767.767 337.172 766.346 332.684C764.948 328.221 763.966 323.022 760.168 320.433C758.304 319.166 755.779 318.557 754.873 316.452C753.354 312.926 757.766 308.794 756.149 305.317C754.554 301.919 749.211 303.163 746.439 300.652C744.11 298.498 744.429 294.363 742.173 292.156C741.021 291.014 739.426 290.585 737.957 290.002C733.299 288.149 729.45 284.295 727.513 279.552C724.842 280.059 725.234 284.168 726.51 286.653C731.412 296.137 739.21 304.001 748.499 308.843C745.483 310.415 743.989 313.967 742.762 317.238C740.875 322.106 739.011 327 737.147 331.895C734.302 331.541 731.337 331.109 729.058 329.335C726.779 327.56 725.551 323.933 727.244 321.575C730.358 324.695 736.39 323.579 738.252 319.546C740.116 315.463 737.172 309.933 732.859 309.426C734.672 304.1 728.887 299.434 723.788 297.43C718.689 295.427 712.436 292.89 711.825 287.285C709.496 285.13 705.745 286.221 703.22 288.097C700.694 289.999 698.586 292.611 695.621 293.652C692.68 294.693 688.487 292.942 688.658 289.721C687.139 291.089 685.617 292.434 684.097 293.803C687.554 294.818 685.594 300.55 682.407 302.25C679.22 303.923 674.881 304.99 674.096 308.614C673.777 310.061 674.194 311.58 674.169 313.103C674.144 315.385 673.115 317.542 672.109 319.595C669.609 324.643 666.397 330.271 661.004 331.312C657.842 331.921 653.012 332.275 653.452 335.548C648.892 331.44 642.518 329.538 636.536 330.526C636.903 327.635 637.27 324.745 637.615 321.877C635.555 321.546 633.472 321.242 631.412 320.937C634.599 316.373 635.751 310.31 634.476 304.833C633.764 301.765 632.906 297.454 635.776 296.363C634.232 294.943 633.105 293.041 632.539 290.962C636.83 289.01 641.831 288.807 646.293 290.353C648.23 291.011 650.069 292 652.031 292.608C657.573 294.334 664.241 292.405 667.428 287.436C670.615 282.44 669.292 274.68 664.216 271.813C661.544 270.316 658.307 270.189 655.683 268.565C653.11 266.941 651.762 262.479 654.36 260.881C656.493 264.253 661.396 265.294 664.633 263.088C663.114 260.4 662.453 257.231 662.747 254.137C665.127 253.122 668.19 255.456 667.896 258.118C672.112 258.219 676.232 255.227 677.58 251.092C678.071 249.671 678.267 248.1 679.223 246.934C680.498 245.389 682.704 245.16 684.543 244.449C689.104 242.675 691.8 236.916 690.303 232.149C696.187 229.334 702.757 228.067 709.207 228.447C706.928 224.086 704.573 219.443 704.795 214.473C705.016 209.527 708.912 204.406 713.669 204.861C714.404 207.752 714.356 210.846 713.571 213.737C714.97 214.068 716.341 214.372 717.739 214.7C714.723 217.286 711.659 222.282 714.796 224.718C717.296 226.646 720.876 224.161 723.942 224.819C725.341 225.124 726.541 226.086 727.914 226.417C734.117 228.015 740.124 217.463 745.368 221.244C747.134 222.511 747.844 225.098 750.86 224.718C752.527 224.489 753.974 223.398 754.781 221.876C756.522 218.756 755.958 215.155 756.3 211.707C756.595 208.715 757.993 205.392 760.81 204.606C763.899 203.745 766.865 206.381 770.052 206.737C775.42 207.372 779.638 199.738 776.378 195.275C772.308 198.497 767.086 200.094 761.962 199.662C760.443 196.922 763.605 193.956 766.374 192.663C775.91 188.276 786.724 186.93 796.994 188.859C798.833 187.084 796.184 184.295 793.931 183.178C791.674 182.088 789.174 179.096 791.111 177.472C784.344 174.656 778.41 184.471 771.106 184.825C763.627 185.205 759.288 174.859 762.06 167.657C764.855 160.48 771.792 156.093 778.29 152.237C773.998 145.263 762.772 144.704 757.867 151.222C758.481 156.549 756.396 162.127 752.474 165.627C748.429 169.228 741.834 172.525 743.207 177.875C744.41 182.566 751.642 184.825 750.661 189.592C749.778 193.979 742.84 194.031 741.198 198.163C740.02 201.182 742.302 204.885 740.903 207.802C739.482 210.745 735.437 210.846 732.887 212.824C731.146 214.169 730.165 216.297 728.573 217.82C726.956 219.316 724.038 219.899 722.86 217.996C721.708 216.12 723.227 213.812 724.06 211.757C726.611 205.696 722.933 198.949 719.376 193.446C712.17 192.837 708.442 206.937 701.748 204.073C699.862 203.261 698.757 201.283 697.801 199.407C695.153 194.336 692.481 189.16 691.475 183.48C690.494 177.8 691.45 171.458 695.298 167.3C700.422 161.771 709.027 161.443 714.715 156.572C721.089 151.121 722.633 141.001 729.473 136.208C733.568 133.343 739.844 131.795 740.334 126.697C735.824 127.077 731.311 127.457 726.801 127.84C728.862 123.934 733.739 121.904 737.809 123.25C736.116 119.498 740.309 115.464 744.306 114.882C748.303 114.325 752.494 115.517 756.345 114.325C759.484 113.336 761.985 110.926 764.998 109.581C767.596 108.415 770.489 108.137 773.334 107.983C776.521 107.83 779.733 107.83 782.92 107.983C776.644 113.742 772.378 121.907 774.192 130.125C776.986 142.781 792.874 153.379 787.063 164.87C792.532 163.603 798.242 162.359 803.66 163.78C806.578 164.517 809.398 166.291 811.309 168.675C811.04 170.881 812.781 172.96 813.784 175.016C813.81 175.294 813.81 175.573 813.784 175.877C813.711 176.918 813.49 177.907 813.171 178.869C808.464 178.693 797.406 176.332 802.701 184.321C805.056 181.43 806.157 183.28 808.879 182.975C810.006 182.848 811.063 181.63 810.645 180.54C811.259 180.566 811.87 180.592 812.484 180.641C811.503 182.822 810.18 184.901 809.246 187.084C805.347 196.189 808.192 206.636 808.512 216.579C808.658 221.676 807.531 227.356 805.081 231.769C805.67 231.642 806.258 231.517 806.847 231.416C817.756 229.487 830.21 232.355 836.904 241.483C843.572 250.623 841.341 266.321 831.093 270.606Z" fill="black" fill-opacity="0.3"/>
<path d="M627.331 227.04C627.314 229.85 629.932 232.39 629.209 235.098C628.494 237.774 624.83 238.989 624.673 241.761C624.497 244.858 628.665 245.977 631.605 245.357C637.038 244.214 641.985 240.793 645.088 236.041C646.604 233.715 647.198 229.725 644.639 228.8C648.146 227.527 651.65 226.252 655.156 224.979C657.909 227.406 660.869 231.497 658.598 234.411C657.132 236.29 653.685 237.589 654.725 239.752C655.148 240.634 656.275 241.074 656.474 242.04C656.684 243.058 655.748 243.89 654.977 244.56C651.658 247.442 649.704 251.933 649.825 256.416C654.809 251.655 661.662 249.057 668.44 249.358C670.026 249.428 671.798 249.593 673.011 248.535C674.225 247.476 673.687 244.748 672.123 245.012C674.02 243.603 675.918 242.193 677.816 240.781C678.245 240.462 678.69 240.12 678.9 239.622C679.391 238.447 678.287 237.168 677.118 236.757C675.949 236.345 674.643 236.406 673.521 235.864C671.046 234.663 670.632 231.314 669.777 228.629C668.925 225.944 665.881 223.222 663.781 225.034C664.308 222.453 664.821 219.684 663.837 217.251C662.853 214.818 659.714 213.163 657.662 214.732C656.476 212.914 659.223 211.232 660.664 209.622C662.234 207.871 662.203 204.827 660.569 203.139C658.932 201.454 655.947 201.457 654.349 203.18C654.568 198.21 655.585 192.092 660.165 190.578C661.424 190.16 662.794 190.187 664.045 189.746C665.295 189.302 666.489 188.119 666.284 186.768C666.503 188.351 668.972 188.432 669.889 187.148C670.805 185.863 670.612 184.092 670.379 182.514C666.811 181.456 665.272 187.673 661.738 188.847C660.112 189.386 658.254 188.745 656.678 189.427C652.947 191.042 653.951 198.224 650.052 199.343C649.13 199.607 648.112 199.428 647.232 199.819C645.458 200.608 645.262 203.145 645.693 205.093C646.125 207.042 646.887 209.138 646.072 210.95C645.623 211.945 644.704 212.934 645.077 213.96C645.567 215.317 647.496 214.952 648.819 215.433C652.143 216.654 650.329 220.699 648.606 222.294C646.447 224.289 642.809 223.767 640.267 223.401C636.446 222.842 627.378 219.391 627.331 227.04Z" fill="black" fill-opacity="0.3"/>
<path d="M710.695 307.709C710.244 307.32 709.79 306.932 709.339 306.543C710.746 306.195 711.685 304.685 711.766 303.188C711.847 301.695 711.231 300.242 710.421 299.004C709.448 297.514 707.763 296.116 706.121 296.702C704.033 297.447 703.999 300.512 704.7 302.678C705.4 304.844 706.39 307.375 705.117 309.243C705.897 309.051 706.766 309.309 707.329 309.901C704.29 311.919 703.576 318.333 708.066 318.707C712.545 319.081 713.426 313.128 708.896 312.047C708.98 311.757 710.743 307.749 710.695 307.709Z" fill="black" fill-opacity="0.3"/>
<path d="M1218.92 357.933C1219.17 355.431 1219.43 352.517 1221.47 351.151C1222.13 352.885 1223.35 354.381 1224.9 355.329C1226.3 354.497 1227.06 352.902 1227.87 351.464C1228.68 350.026 1229.79 348.547 1231.38 348.278C1232.97 348.008 1234.76 349.843 1233.92 351.267C1238.08 352.963 1240.83 346.706 1244.68 344.372C1246.72 343.142 1249.18 343.05 1251.47 342.447C1253.75 341.843 1256.15 340.339 1256.48 337.926C1256.66 336.517 1256.09 335.119 1256.04 333.696C1255.95 330.657 1258.2 328.178 1259.64 325.533C1262.17 320.917 1262.28 314.987 1259.94 310.27C1258.67 307.712 1256.72 305.459 1256.1 302.658C1255.47 299.857 1257.04 296.204 1259.82 296.245C1260.58 298.689 1261.61 301.429 1263.94 302.342C1266.26 303.256 1269.37 300.203 1267.69 298.309C1270.3 297.567 1273.04 297.32 1275.73 297.584C1276.87 295.85 1276.6 293.281 1275.13 291.843C1283.64 288.769 1290.97 282.706 1296.59 275.405C1288.83 280.395 1281.07 285.386 1273.3 290.373C1272.38 290.964 1271.29 291.576 1270.28 291.176C1269.36 290.814 1268.91 289.767 1268.45 288.868C1266.36 284.809 1261.96 282.141 1257.52 282.234C1257.88 286.073 1258.24 289.912 1258.6 293.751C1255.96 293.252 1253.56 295.824 1252.95 298.532C1252.34 301.241 1252.95 304.059 1253.17 306.828C1253.95 316.568 1249.49 326.583 1241.83 332.304C1241.8 330.729 1241.77 329.158 1241.74 327.583C1237.69 328.195 1239.55 336.007 1235.91 337.929C1234.88 338.468 1233.67 338.367 1232.52 338.491C1226.82 339.115 1226.91 345.181 1220.74 342.763C1220.13 350.51 1210.61 349.145 1211.3 356.944C1211.87 363.535 1217.87 368.563 1218.92 357.933Z" fill="black" fill-opacity="0.3"/>
<path d="M1268.96 235.342C1269.06 235.902 1269.16 236.476 1269.07 237.041C1268.91 238.123 1268.1 238.987 1267.81 240.037C1267.3 241.866 1268.44 243.754 1269.77 245.07C1271.09 246.39 1272.7 247.494 1273.55 249.185C1274.97 252.009 1273.96 255.877 1275.99 258.266C1275.36 259.89 1272.98 259.397 1271.6 258.379C1270.22 257.362 1268.52 256.028 1267.04 256.863C1265.28 259.475 1266.26 263.074 1267.64 265.915C1269.03 268.754 1270.82 271.657 1270.55 274.823C1270.42 276.313 1269.32 278.036 1267.91 277.688C1267.37 277.554 1266.94 277.14 1266.55 276.74C1264.65 274.849 1262.65 272.747 1262.29 270.05C1262.03 268.084 1262.7 266.136 1263.18 264.216C1264.16 260.258 1264.35 256.095 1263.73 252.058C1263.47 250.327 1263.05 248.599 1263.12 246.848C1263.23 243.6 1264.89 239.99 1263.06 237.346C1262.49 236.519 1261.56 235.6 1262 234.69C1262.78 233.031 1266.25 229.914 1267.48 228.609C1268.28 230.717 1268.55 233.066 1268.96 235.342Z" fill="black" fill-opacity="0.3"/>
<path d="M1070.9 509.913C1073.46 511.867 1076.66 513.267 1078.16 516.176C1079.31 518.42 1079.31 521.343 1081.1 523.094C1082.05 524.031 1083.38 524.472 1084.35 525.394C1086.62 527.554 1086.12 531.346 1087.21 534.327C1088.75 538.552 1093.51 541.06 1094.42 545.482C1094.73 546.993 1094.55 548.625 1095.18 550.023C1096.39 552.69 1099.87 553.256 1101.81 555.41C1102.77 556.471 1103.3 557.866 1104.12 559.043C1106.44 562.369 1111.25 563.494 1114.73 561.528C1113.5 559.568 1112.8 557.248 1112.75 554.908C1112.72 553.528 1112.9 552.131 1112.65 550.777C1112.03 547.5 1109.01 545.198 1108.18 541.973C1109.59 540.898 1111.45 542.478 1112.51 543.931C1113.57 545.383 1115.34 547.019 1116.82 546.036C1114.12 542.394 1111.05 539.054 1107.66 536.096C1107.93 537.418 1106.21 538.398 1104.98 537.937C1103.75 537.473 1103.01 536.209 1102.37 535.029C1101.89 534.142 1101.39 533.185 1101.48 532.173C1101.55 531.326 1102.03 530.569 1102.18 529.734C1102.49 527.98 1101.27 526.313 1099.88 525.26C1098.49 524.208 1096.84 523.494 1095.63 522.224C1093.21 519.699 1092.8 515.309 1089.78 513.615C1088.34 512.806 1086.57 512.815 1085.11 512.044C1080.55 509.64 1079.68 502.67 1074.48 500.521C1067.09 497.465 1065.53 505.824 1070.9 509.913Z" fill="black" fill-opacity="0.3"/>
<path d="M1116.43 562.655C1115.34 564.218 1114.26 565.781 1113.18 567.346C1112.94 567.686 1112.7 568.054 1112.7 568.468C1112.71 569.631 1114.31 569.802 1115.43 569.643C1118.95 569.141 1122.56 569.327 1126.01 570.185C1131.84 571.632 1137.39 574.987 1143.38 574.598C1144.29 574.54 1145.2 574.392 1146.1 574.534C1147.07 574.685 1147.96 575.158 1148.9 575.448C1151.08 576.115 1153.53 575.741 1155.42 574.45C1153.81 572.841 1151.29 572.96 1149.06 572.789C1146.83 572.618 1144.17 571.562 1143.9 569.263C1143.83 568.64 1143.95 567.996 1143.8 567.387C1143.48 566.094 1142.04 565.45 1140.76 565.372C1139.47 565.293 1138.16 565.592 1136.89 565.34C1134.75 564.916 1133.12 562.866 1130.99 562.562C1128.85 562.255 1127.9 563.945 1126.17 564.029C1122.59 564.203 1119.77 557.83 1116.43 562.655Z" fill="black" fill-opacity="0.3"/>
<path d="M1167.06 575.776C1168.94 575.817 1170.78 577.348 1172.54 576.675C1172.99 576.504 1173.39 576.2 1173.87 576.156C1174.45 576.104 1174.99 576.463 1175.52 576.719C1180.68 579.18 1186.6 572.152 1191.89 574.289C1190.66 579.479 1184.02 581.117 1181.41 585.73C1185.91 585.049 1190.15 582.677 1193.17 579.157C1193.98 578.2 1194.74 577.142 1195.78 576.458C1196.38 576.063 1197.06 575.808 1197.65 575.408C1199.04 574.468 1199.88 572.72 1199.77 571.003C1198.23 570.966 1196.69 571.357 1195.34 572.126C1194.35 572.694 1193.43 573.477 1192.32 573.741C1190.48 574.179 1188.64 573.074 1186.76 572.798C1182.79 572.218 1178.98 576.49 1175.37 575.782C1173.95 575.504 1173.21 573.845 1171.4 573.372C1169.94 572.993 1167.61 573.642 1165.95 573.399C1164.1 573.126 1160.29 571.186 1158.89 573.225C1154.78 579.233 1166.04 575.756 1167.06 575.776Z" fill="black" fill-opacity="0.3"/>
<path d="M1166.05 581.47C1166.85 580.551 1168.38 581.128 1169.16 582.056C1169.95 582.984 1170.44 584.216 1171.45 584.863C1172.47 585.515 1173.9 585.376 1174.78 584.538C1175.3 584.045 1175.63 583.248 1175.36 582.572C1175.09 581.888 1174.34 581.572 1173.67 581.325C1173.01 581.088 1172.36 580.847 1171.7 580.609C1170.55 580.189 1169.35 579.765 1168.13 579.936C1166.93 580.107 1165.73 581.076 1165.71 582.34" fill="black" fill-opacity="0.3"/>
<path d="M1133.87 545.46C1131.7 545.698 1128.86 545.895 1128.02 543.813C1127.53 542.586 1128.09 541.203 1128.12 539.878C1128.17 537.701 1126.81 535.801 1125.84 533.867C1124.15 530.483 1123.53 526.528 1124.13 522.768C1124.28 521.817 1124.53 520.828 1125.17 520.129C1125.58 519.683 1126.11 519.39 1126.64 519.106C1128.66 518.009 1130.67 516.913 1132.69 515.817C1135.33 514.382 1137.98 512.944 1140.46 511.227C1146.65 506.945 1151.71 500.942 1154.98 494.015C1156.1 492.774 1158.2 493.943 1158.95 495.457C1159.7 496.97 1159.89 498.832 1161.06 500.044C1162.84 501.899 1166.73 502.311 1166.43 504.906C1166.32 505.933 1165.48 506.675 1164.79 507.426C1162.37 510.056 1161.37 513.993 1162.23 517.511C1163.09 521.028 1165.77 524.006 1169.1 525.137C1166.05 525.441 1162.12 526.673 1162.11 529.846C1162.1 531.843 1163.82 533.948 1162.76 535.619C1161.66 537.358 1158.71 536.544 1157.41 538.127C1156.36 539.397 1157.01 541.305 1157.23 542.957C1157.78 547.092 1154.69 551.381 1150.7 552.004C1149.02 552.268 1147.05 551.795 1146.2 550.27C1145.76 549.47 1145.69 548.504 1145.32 547.661C1143.86 544.268 1141.66 546.309 1139.51 546.277C1138 546.254 1135.88 545.239 1133.87 545.46Z" fill="black" fill-opacity="0.3"/>
<path d="M1193.34 521.172C1193.7 521.047 1194.05 520.926 1194.41 520.801C1193.65 520.282 1192.62 520.444 1191.87 520.989C1191.13 521.537 1190.6 522.335 1189.99 523.039C1187.88 525.475 1184.64 526.8 1181.49 526.51C1179.51 526.328 1177.54 525.55 1175.58 525.939C1173.19 526.417 1171.38 528.627 1170.67 531.039C1170.32 532.254 1170.66 534.104 1171.88 534.003C1172.56 531.834 1174.47 530.239 1176.57 529.549C1178.67 528.859 1180.94 528.972 1183.11 529.378C1184.82 529.694 1186.53 530.19 1188.25 529.958C1189.96 529.726 1191.71 528.511 1191.92 526.733C1192.07 525.446 1191.4 524.063 1191.93 522.889C1192.4 521.868 1193.71 520.96 1193.19 519.969C1192.64 520.079 1193.9 521.062 1193.34 521.172Z" fill="black" fill-opacity="0.3"/>
<path d="M1166.99 549.831C1167.78 553.499 1169.44 557.332 1168.15 560.846C1169.58 561.513 1171.29 560.266 1171.77 558.727C1172.25 557.187 1171.87 555.514 1171.5 553.942C1171.14 552.368 1170.78 550.686 1171.31 549.161C1171.43 548.81 1171.64 548.436 1172 548.358C1172.17 548.317 1172.35 548.358 1172.52 548.407C1174.46 548.978 1175.78 550.88 1176.39 552.864C1177 554.844 1177.04 556.955 1177.31 559.014C1177.48 560.298 1177.83 561.699 1178.87 562.421C1180.58 563.61 1183.02 562.021 1183.67 559.991C1184.31 557.964 1183.79 555.766 1183.52 553.652C1183.13 550.715 1182.92 547.172 1180.41 545.748C1179.38 545.162 1177.93 544.899 1177.6 543.73C1177.2 542.327 1178.81 541.245 1180.16 540.831C1181.4 540.457 1182.66 540.184 1183.94 540.022C1185.46 539.827 1187.43 539.381 1187.59 537.803C1187.74 536.162 1185.74 535.345 1184.17 535.069C1182.28 534.736 1180.36 534.405 1178.45 534.657C1176.55 534.913 1174.64 535.846 1173.63 537.537C1173.42 537.893 1173.22 538.308 1172.85 538.464C1172.32 538.688 1171.73 538.282 1171.42 537.789C1171.11 537.296 1170.95 536.704 1170.59 536.246C1166.49 530.992 1166.69 548.404 1166.99 549.831Z" fill="black" fill-opacity="0.3"/>
<path d="M1201.19 546.157C1199.1 545.647 1196.88 545.699 1194.82 546.308C1194.44 546.418 1194.01 546.633 1193.99 547.033C1193.97 547.462 1194.44 547.717 1194.84 547.828C1196.82 548.387 1199.01 548.152 1200.84 547.181C1200.56 546.334 1199.48 545.896 1198.72 546.323" fill="black" fill-opacity="0.3"/>
<path d="M1210.16 545.02C1209.11 544.463 1207.75 544.623 1206.84 545.411C1205.95 546.197 1205.56 547.563 1205.91 548.726C1208 549.274 1210.12 546.719 1212.11 547.563C1213.42 548.117 1214.09 549.978 1215.5 550.057C1216.7 550.123 1217.56 548.375 1216.79 547.415C1216.14 546.603 1214.91 546.612 1214.12 545.942C1212.7 544.721 1213.58 542.355 1214.56 540.732C1212.97 540.375 1211.78 542.303 1211.57 543.97C1211.48 544.704 1211.47 545.475 1211.14 546.133C1210.81 546.792 1210.02 547.285 1209.37 546.974" fill="black" fill-opacity="0.3"/>
<path d="M1201.27 534.853C1201.25 535.453 1201.23 536.083 1201.5 536.619C1201.76 537.156 1202.4 537.541 1202.94 537.298C1203.34 537.115 1203.54 536.657 1203.71 536.239C1204.25 534.891 1204.79 533.343 1204.18 532.026C1203.91 531.435 1203.42 530.953 1203.21 530.333C1202.59 528.489 1204.75 527.483 1206.14 527.627C1205.81 525.293 1203.89 526.946 1203.89 524.409C1203.89 524.023 1208.12 522.347 1204.6 521.736C1200 520.935 1201.38 531.759 1201.27 534.853Z" fill="black" fill-opacity="0.3"/>
<path d="M1220.34 531.955C1218.21 532.123 1215.88 532.062 1214.21 530.688C1212.64 532.042 1213.67 534.863 1215.41 535.988C1217.14 537.116 1219.3 537.313 1221.1 538.325C1222.9 539.337 1224.25 541.909 1222.95 543.538C1224.39 543.924 1225.83 544.313 1227.27 544.698C1227.6 546.099 1226.07 547.108 1224.9 547.902C1223.74 548.697 1222.79 550.657 1224.01 551.373C1224.57 552.617 1226.36 552.414 1227.52 551.759C1228.69 551.101 1229.94 550.155 1231.2 550.555C1232.03 550.816 1232.59 551.585 1233.19 552.223C1235.74 554.905 1239.62 555.549 1242.89 557.204C1246.15 558.857 1249.1 562.864 1247.33 566.149C1246.67 567.393 1245.46 568.211 1244.55 569.281C1243.64 570.348 1243.04 571.995 1243.83 573.166C1246.7 573.369 1249.63 572.421 1251.88 570.563C1254.19 573.123 1256.92 575.512 1260.23 576.257C1263.54 577 1267.49 575.593 1268.79 572.357C1269.04 571.717 1269.22 570.989 1269.73 570.545C1270.46 569.928 1271.53 570.133 1272.44 570.397C1275.22 571.209 1277.94 572.253 1280.56 573.517C1281.06 573.758 1281.6 574.045 1281.83 574.561C1282.18 575.309 1281.76 576.167 1281.65 576.985C1281.23 580.021 1284.86 581.772 1287.78 582.306C1291.73 583.031 1295.75 583.405 1299.77 583.425C1299.9 581.34 1297.72 579.917 1295.75 579.458C1293.78 579 1291.57 578.937 1290.08 577.536C1288.31 575.886 1288.14 572.903 1286.29 571.36C1284.9 570.203 1282.45 569.438 1282.83 567.634C1283.23 565.7 1286.51 565.955 1287.14 564.088C1287.53 562.934 1286.56 561.71 1285.46 561.278C1284.35 560.846 1283.13 560.924 1281.97 560.695C1279.06 560.127 1276.67 557.433 1276.38 554.392C1276.26 553.24 1276.41 552.026 1275.96 550.967C1275.28 549.367 1273.49 548.668 1271.88 548.131C1263.31 545.272 1254.73 542.413 1246.16 539.554C1244.93 539.143 1243.59 538.734 1242.37 539.175C1239.08 540.366 1239.31 546.484 1235.88 547.131C1234.1 547.467 1232.53 545.994 1231.28 544.64C1230.05 543.315 1228.29 541.407 1228.14 539.467C1228.03 538.134 1229.35 536.971 1229.22 535.794C1228.74 531.273 1223.72 531.688 1220.34 531.955Z" fill="black" fill-opacity="0.3"/>
<path d="M1287 559.921C1287.24 560.312 1287.7 560.48 1288.13 560.605C1291.7 561.623 1295.64 561.205 1298.93 559.454C1300 558.891 1301.03 558.181 1302.22 558.05C1303 557.966 1303.78 558.137 1304.56 558.053C1305.34 557.969 1306.17 557.508 1306.32 556.714C1306.46 555.934 1305.91 555.035 1306.36 554.388C1306.82 553.713 1307.97 553.977 1308.48 553.339C1309.06 552.631 1308.37 551.599 1307.72 550.961C1305.07 548.377 1302.5 545.588 1299.67 543.245C1299.42 546.936 1302.03 551.193 1299.23 554.356C1297.61 556.198 1286.15 558.558 1287 559.921Z" fill="black" fill-opacity="0.3"/>
<path d="M1322.12 571.446C1323.42 571.893 1324.79 572.093 1326.06 572.621C1327.33 573.148 1328.55 574.099 1328.93 575.462C1328.92 575.398 1328.91 575.338 1328.91 575.277C1328.46 571.646 1324.89 569.379 1321.73 567.668C1321.31 567.445 1320.87 567.195 1320.65 566.766C1320.51 566.497 1316.28 569.448 1322.12 571.446Z" fill="black" fill-opacity="0.3"/>
<path d="M1359.32 641.689C1359 640.184 1358.49 638.679 1357.53 637.505C1356.57 636.331 1355.07 635.533 1353.6 635.742C1352.33 638.619 1354.53 641.901 1357.05 643.684C1358.83 644.94 1360.85 645.743 1362.85 646.453C1360.32 646.894 1359.75 643.681 1359.32 641.689Z" fill="black" fill-opacity="0.3"/>
<path d="M1367.63 615.437C1368.8 618.383 1369.65 621.468 1370.14 624.611C1371.55 623.779 1371.95 621.558 1370.92 620.262C1371.92 621.19 1371.94 622.773 1372.17 624.15C1372.77 627.757 1375.54 630.874 1378.96 631.808C1379.49 630.75 1379.06 629.419 1378.32 628.502C1377.58 627.586 1376.58 626.94 1375.75 626.119C1374.18 624.571 1373.21 622.376 1373.13 620.134C1373.05 618.113 1373.41 615.55 1371.7 614.573C1371.4 615.446 1371.11 616.321 1370.81 617.194C1370.32 617.142 1370 616.64 1369.81 616.171C1368.62 613.239 1369.82 609.04 1367.14 606.912C1366.73 608.208 1365.93 609.559 1364.55 609.733C1364.52 611.833 1366.83 613.43 1367.63 615.437Z" fill="black" fill-opacity="0.3"/>
<path d="M1333.32 572.383C1335.28 573.247 1337.8 572.922 1339.28 574.505C1340.74 576.065 1340.43 578.709 1341.67 580.458C1342.25 581.284 1343.14 581.835 1343.77 582.615C1344.41 583.398 1344.75 584.633 1344.11 585.41C1343.31 586.385 1341.65 585.782 1341.03 584.674C1340.42 583.566 1340.47 582.212 1340.32 580.942C1340.17 579.672 1339.65 578.266 1338.47 577.854C1337.35 577.46 1335.85 578.074 1335.07 577.152C1334.8 576.845 1334.7 576.427 1334.56 576.045C1333.42 572.925 1329.56 571.382 1328.89 568.222C1330.43 569.445 1331.36 571.518 1333.32 572.383Z" fill="black" fill-opacity="0.3"/>
<path d="M1218.59 567.168C1216.62 568.899 1214.84 570.856 1213.29 572.993C1214.47 573.591 1216.02 573.275 1216.89 572.257C1217.76 571.239 1217.88 569.609 1217.16 568.467" fill="black" fill-opacity="0.3"/>
<path d="M1231.62 558.674C1232.78 559.575 1233.83 560.851 1233.87 562.353C1233.91 563.852 1232.48 565.386 1231.1 564.914C1231.37 562.765 1231.64 560.616 1231.9 558.468" fill="black" fill-opacity="0.3"/>
<path d="M1219.14 591.274C1218.12 589.064 1215.11 588.145 1213.1 589.427C1214.86 590.946 1215.02 594.046 1213.44 595.759C1212.63 596.635 1211.51 597.122 1210.58 597.862C1207.52 600.309 1207.38 605.746 1210.32 608.349C1208.9 609.112 1207.48 609.875 1206.06 610.64C1205.06 606.772 1202.2 603.469 1198.6 602.014C1193.68 605.198 1190.03 610.388 1188.6 616.196C1188.03 616.297 1187.46 616.402 1186.89 616.503C1186.63 618.22 1186.37 619.939 1186.11 621.656C1184.84 619.91 1184.33 617.605 1184.74 615.465C1181.77 616.074 1180.1 619.336 1179.29 622.346C1178.47 625.355 1177.99 628.684 1175.84 630.891C1174.27 632.506 1172.07 633.231 1169.95 633.903C1166.7 634.933 1163.45 635.965 1160.21 636.994C1157.53 637.844 1154.61 638.879 1153.17 641.364C1152 643.376 1151.24 646.592 1148.99 646.311C1148.04 646.192 1147.3 645.383 1146.37 645.139C1144.46 644.641 1142.74 646.824 1142.66 648.865C1142.58 650.907 1143.51 652.823 1144.02 654.798C1144.54 656.772 1144.49 659.205 1142.94 660.469C1144.74 660.582 1146.6 661.31 1147.67 662.821C1148.73 664.332 1148.72 666.692 1147.35 667.91C1145.98 669.125 1143.38 668.432 1143.07 666.59C1147.02 677.731 1149.81 689.309 1151.38 701.064C1152.02 705.868 1152.4 711.044 1150.15 715.298C1154.06 718.348 1159.77 718.667 1163.98 716.072C1166.34 714.616 1168.21 712.372 1170.67 711.125C1174.97 708.953 1180.19 710.212 1184.77 708.776C1188.97 707.463 1192.38 703.966 1196.7 703.18C1199.96 702.586 1203.58 703.563 1206.44 701.832C1207.78 701.014 1208.77 699.68 1210.07 698.782C1211.52 697.775 1213.29 697.367 1215.03 697.262C1221.96 696.853 1229.05 701.786 1230.61 708.776C1231 710.525 1231.08 712.363 1231.74 714.022C1232.41 715.677 1233.92 717.174 1235.65 717.014C1236.08 711.537 1241.11 706.889 1246.42 707.063C1246.68 708.826 1245.45 710.444 1244.16 711.615C1242.86 712.789 1241.35 713.854 1240.67 715.495C1240 717.136 1240.75 719.543 1242.47 719.67C1243.34 717.968 1244.54 716.446 1245.98 715.225C1248.69 717.713 1247.41 723.193 1243.91 724.138C1247.27 723.109 1252.03 722.764 1253.15 726.194C1253.47 727.166 1253.37 728.221 1253.46 729.242C1253.96 734.542 1259.31 737.642 1264.01 739.825C1264.96 740.269 1265.98 740.724 1267.01 740.544C1268.79 740.237 1269.74 738.291 1270.77 736.766C1271.8 735.241 1273.92 733.907 1275.27 735.137C1276.44 736.198 1275.96 738.294 1276.89 739.587C1278.14 741.339 1280.95 740.402 1282.32 738.749C1283.7 737.097 1284.51 734.881 1286.3 733.716C1289.62 731.55 1295.63 733.24 1296.61 729.311C1297.15 727.174 1295.41 725.205 1294.84 723.08C1293.96 719.754 1296.03 716.359 1298.42 713.949C1300.8 711.537 1303.68 709.458 1305.09 706.335C1307.46 701.116 1304.98 694.905 1305.93 689.224C1306.88 683.524 1311.25 677.855 1308.96 672.572C1308.06 670.499 1306.24 668.942 1305.49 666.811C1304.76 664.752 1305.06 662.253 1303.71 660.568C1302.85 659.501 1301.51 659.011 1300.42 658.199C1296.8 655.502 1296.7 650.115 1295.32 645.731C1292.8 637.742 1285.56 632.549 1280.55 625.938C1279.63 624.718 1278.76 623.404 1278.36 621.908C1277.9 620.168 1278.11 618.324 1277.97 616.526C1277.64 612.148 1275.09 608.016 1271.39 605.859C1270.59 605.386 1269.7 604.98 1269.13 604.22C1268.33 603.142 1268.37 601.657 1268.33 600.297C1268.17 595.174 1266.21 590.128 1262.89 586.321C1260.69 597.569 1258.49 608.813 1256.3 620.061C1255.02 621.064 1253.47 621.687 1251.87 621.835C1251.24 618.962 1250.6 616.088 1249.97 613.218C1246.84 613.383 1243.54 613.519 1240.73 612.087C1237.92 610.655 1235.85 607.079 1237.11 604.107C1237.8 602.484 1239.36 600.677 1238.33 599.256C1241.14 600.347 1243.59 595.635 1241.54 593.379C1238.3 589.827 1234.76 594.977 1231.43 594.791C1227.29 594.556 1223.58 588.566 1219.14 591.274Z" fill="black" fill-opacity="0.3"/>
<path d="M1278.7 766.646C1278.68 767.478 1278.66 768.493 1279.34 768.919C1279.62 769.09 1279.96 769.119 1280.28 769.143C1282.64 769.308 1285.62 768.983 1286.43 766.681C1287.08 764.831 1285.85 762.691 1286.51 760.847C1286.73 760.238 1287.13 759.728 1287.48 759.185C1288.34 757.834 1288.84 756.138 1288.43 754.578C1288.01 753.018 1286.46 751.742 1284.93 752.047C1284.08 752.215 1283.37 752.798 1282.54 753.024C1279.88 753.746 1272.25 747.857 1272.91 754.459C1273.12 756.529 1275.88 758.156 1276.9 759.841C1278.12 761.867 1278.77 764.26 1278.7 766.646Z" fill="black" fill-opacity="0.3"/>
<path d="M1366.76 778.211C1364.99 778.817 1363.05 779.081 1361.57 780.252C1360.08 781.423 1359.42 784.007 1360.86 785.225C1361.98 786.159 1363.63 785.779 1365 786.231C1368.06 787.243 1368.33 791.546 1368.02 794.854C1370.16 795.803 1372.49 793.863 1373.68 791.787C1374.86 789.71 1375.68 787.214 1377.66 785.947C1378.95 785.121 1380.64 784.894 1381.6 783.674C1382.94 781.954 1382.06 779.379 1382.55 777.228C1383.8 771.832 1391.32 771.362 1393.33 766.096C1394.72 762.437 1397.27 755.275 1393.08 754.521C1382.64 752.628 1375.81 775.114 1366.76 778.211Z" fill="black" fill-opacity="0.3"/>
<path d="M1399.63 758.281C1399.63 758.568 1399.63 758.872 1399.78 759.113C1400.15 759.713 1401.07 759.472 1401.6 759.023C1404.66 756.425 1402.81 750.878 1405.16 747.581C1405.94 746.491 1407.1 745.775 1408.12 744.934C1411.41 742.231 1413.44 737.949 1413.48 733.602C1411.97 734.455 1410.41 735.322 1408.7 735.568C1406.99 735.815 1405.07 735.316 1404.05 733.878C1402.8 732.109 1403.22 729.511 1402.03 727.693C1400.66 725.599 1397.7 725.301 1396.05 723.433C1394.54 721.72 1394.5 719.171 1394.16 716.88C1393.82 714.59 1392.68 711.98 1390.46 711.661C1386.06 716.875 1394.69 723.407 1395.81 727.855C1396.89 732.121 1394.76 733.315 1393.11 736.896C1391.39 740.622 1390.25 743.562 1393.66 746.459C1395.86 748.321 1397.67 745.482 1399.59 748.929C1400.68 750.913 1399.66 756.077 1399.63 758.281Z" fill="black" fill-opacity="0.3"/>
<path d="M1169.83 446.101C1169.59 446.829 1169.34 447.574 1169.35 448.346C1169.4 450.984 1172.34 452.776 1172.56 455.406C1172.64 456.453 1172.27 457.488 1172.28 458.538C1172.28 459.587 1172.9 460.802 1173.92 460.814C1174.79 460.822 1175.4 459.964 1176.03 459.329C1176.66 458.694 1177.82 458.288 1178.32 459.039C1178.53 459.373 1178.51 459.808 1178.48 460.208C1178.21 463.023 1177.46 465.786 1176.29 468.344C1177.76 468.947 1179.48 467.964 1180.29 466.567C1181.1 465.169 1181.24 463.473 1181.35 461.846C1181.4 461.037 1181.45 460.19 1181.14 459.445C1180.66 458.326 1179.49 457.726 1178.72 456.798C1177.29 455.073 1177.44 452.44 1178.24 450.32C1179.04 448.201 1180.39 446.339 1181.2 444.222C1181.41 443.671 1181.59 443.08 1181.51 442.494C1181.42 441.885 1181.07 441.36 1180.81 440.81C1180.17 439.441 1180.1 437.869 1179.82 436.376C1177.36 423.311 1170.59 443.808 1169.83 446.101Z" fill="black" fill-opacity="0.3"/>
<path d="M1193.98 466.442C1194.25 468.863 1193.26 471.398 1191.45 472.955C1191.04 473.306 1190.58 473.625 1190.33 474.106C1189.46 475.759 1191.48 477.333 1192.92 478.467C1197.47 482.028 1198.03 489.862 1194.03 494.067C1193.65 494.464 1193.23 494.841 1193 495.34C1192.77 495.83 1192.74 496.392 1192.73 496.937C1192.7 499.408 1193.13 501.884 1193.98 504.195C1191.61 505.421 1188.66 503.397 1187.75 500.823C1186.85 498.248 1187.37 495.403 1187.8 492.701C1187.97 491.698 1188.09 490.578 1187.54 489.735C1186.65 488.369 1184.49 488.65 1183.37 489.825C1182.25 490.999 1181.88 492.698 1181.43 494.278C1180.99 495.861 1180.33 497.54 1178.94 498.338C1177.88 492.84 1182.23 486.905 1187.64 486.487C1188.82 486.397 1190.07 486.516 1191.13 485.962C1192.18 485.406 1192.82 483.776 1191.94 482.947C1190.91 482.982 1190.5 481.561 1190.59 480.499C1190.69 479.438 1190.86 478.139 1190.02 477.513C1189.17 476.869 1187.92 477.536 1187.36 478.458C1186.79 479.38 1186.61 480.511 1186.06 481.442C1185.23 482.839 1183.53 483.622 1181.97 483.327C1181.88 480.894 1183.28 478.47 1185.39 477.391C1183.52 476.707 1181.58 475.599 1180.85 473.685C1180.12 471.772 1181.4 469.069 1183.39 469.235C1184.09 471.116 1184.8 472.998 1185.51 474.877C1187.04 475.875 1189.22 474.871 1190.11 473.239C1191 471.606 1190.93 469.603 1190.68 467.744C1192.69 468.805 1194.99 465.886 1194.16 463.72C1193.69 462.476 1192.58 461.614 1191.47 461.449C1192.73 462.78 1193.77 464.569 1193.98 466.442Z" fill="black" fill-opacity="0.3"/>
<path d="M893.448 106.673C894.813 105.667 893.776 103.225 892.187 102.674C890.598 102.123 888.871 102.66 887.195 102.715C885.518 102.767 883.497 101.946 883.318 100.221C883.265 99.7109 883.388 99.1977 883.582 98.725C884.75 95.8515 888.05 94.7062 890.202 92.5257C893.555 89.1332 893.849 83.5515 896.789 79.7705C900.859 74.5425 908.548 74.3164 913.762 70.3149C915.399 69.0594 916.766 67.4444 918.468 66.2787C922.877 63.2603 928.595 63.7619 933.879 63.6169C940.802 63.4255 947.689 61.909 954.088 59.1689C952.735 65.8061 945.052 68.291 938.694 69.9496C934.417 71.0659 930.182 72.3591 926.002 73.8205C920.685 75.6792 915.362 77.8713 911.012 81.5363C906.662 85.2014 903.36 90.5801 903.278 96.3851C903.236 99.4326 906.76 106.018 904.806 108.378C902.513 111.156 895.96 107.833 893.448 106.673Z" fill="black" fill-opacity="0.3"/>
<path d="M1055.35 29.1707C1053.74 29.7014 1052.14 30.232 1050.54 30.7626C1052.02 33.1171 1055.08 34.2682 1057.67 33.4447C1060.39 32.5835 1063.03 29.8318 1065.58 31.1279C1066.24 32.3951 1064.74 33.6535 1063.52 34.3436C1062.3 35.0337 1061 36.672 1061.99 37.681C1062.23 37.9246 1062.56 38.0493 1062.88 38.1565C1068.47 40.0123 1074.85 38.4349 1080.2 40.943C1081.89 41.7317 1083.52 42.935 1085.37 42.851C1087.21 42.7669 1088.94 40.3486 1087.67 38.9655C1086.84 38.0609 1085.14 38.0463 1084.81 36.8488C1084.2 34.648 1089.21 33.7608 1088.23 31.7079C1084.61 31.8239 1080.98 31.9398 1077.35 32.0558C1076.12 32.0935 1074.61 31.9717 1074.08 30.8235C1073.78 30.174 1073.89 29.3476 1073.48 28.7677C1072.97 28.0602 1071.96 28.0776 1071.11 28.1675C1069.19 28.3676 1067.27 28.5676 1065.36 28.7677C1069.55 28.3299 1075.04 26.0218 1079.25 24.9663C1073.67 18.4278 1057.53 19.2165 1055.35 29.1707Z" fill="black" fill-opacity="0.3"/>
<path d="M1106.01 38.701C1105.92 36.2624 1102.67 35.1925 1100.53 36.2392C1098.4 37.286 1097.12 39.5245 1095.67 41.4527C1093.94 43.7636 1091.84 45.7469 1089.75 47.7187C1095.24 46.9851 1100.73 46.2515 1106.23 45.5208C1108.35 45.2366 1110.9 44.6074 1111.53 42.4936C1109.4 40.9916 1106.91 40.0435 1104.34 39.7506" fill="black" fill-opacity="0.3"/>
<path d="M1250.06 73.1638C1250.77 72.7289 1251.4 72.1576 1252.19 71.9228C1255.32 70.9833 1258 75.7618 1261.17 74.9847C1262.51 74.6571 1263.46 73.3987 1264.74 72.8912C1267.76 71.7053 1271.11 74.9644 1273.97 72.9579C1277.7 70.3396 1276.09 68.0953 1273.16 66.9123C1270.47 65.825 1266.3 66.9703 1263.27 66.0685C1261.03 65.4016 1259.08 64.1171 1256.96 63.1776C1251.96 60.9682 1244.04 57.2683 1240.64 63.9373C1237.59 69.9279 1244.36 76.7013 1250.06 73.1638Z" fill="black" fill-opacity="0.3"/>
<path d="M1294.42 71.5329C1292.2 69.654 1289.62 68.2245 1286.88 67.3576C1286.49 67.2329 1286.09 67.1198 1285.68 67.1401C1284.22 67.2068 1283.3 69.0886 1283.77 70.521C1284.24 71.9534 1285.67 72.8551 1287.11 73.1393C1288.55 73.4235 1290.02 73.2176 1291.48 73.1132C1294.55 72.8958 1297.65 73.1509 1300.65 73.8671C1301.22 71.8809 1299.32 69.8802 1297.34 69.6047C1295.36 69.3293 1293.42 70.2339 1291.61 71.1183" fill="black" fill-opacity="0.3"/>
<path d="M1266.2 83.0776C1264.5 82.2338 1262.67 81.651 1260.81 81.3494C1259.82 81.19 1258.36 81.6075 1258.6 82.6136C1258.71 83.0457 1259.12 83.3096 1259.49 83.5241C1262.05 84.9594 1264.77 86.0873 1267.58 86.876C1268.88 87.2414 1270.68 87.2761 1271.11 85.9626C1271.42 85.0406 1270.77 84.0721 1270.04 83.4545C1268.27 81.9496 1265.76 81.4219 1263.56 82.0859" fill="black" fill-opacity="0.3"/>
<path d="M720.22 41.4801C722.605 42.9328 725.509 43.2054 727.973 44.5131C730.86 46.0412 732.988 49.0219 733.551 52.3246C733.896 54.3485 733.725 56.5724 734.813 58.2919C736.391 60.7884 740.178 60.9653 742.479 59.1647C744.78 57.364 745.733 54.1977 745.722 51.214C745.711 48.8683 745.316 46.1514 746.941 44.516C747.639 43.8143 748.589 43.4692 749.512 43.1503C751.314 42.5269 753.214 41.9179 755.09 42.2514C756.965 42.5819 758.776 44.168 758.736 46.1368C758.691 48.5087 756.121 50.7095 757.136 52.8378C760.763 52.7856 764.393 52.7334 768.02 52.6812C769.276 51.3677 768.393 49.0045 766.91 47.9752C765.427 46.9458 763.569 46.7139 761.935 45.9658C760.303 45.2177 758.767 43.5127 759.224 41.7266C759.911 39.0329 763.608 39.375 766.296 39.4736C773.463 39.7404 780.078 32.7524 779.666 25.3468C773.301 24.3407 770.156 31.5432 764.872 33.4251C760.508 34.9792 758.117 32.3522 754.12 32.7408C749.862 33.1554 748.85 35.968 745.562 36.7828C740.449 38.047 736.769 35.4287 731.477 34.7009C727.348 34.1268 709.4 34.8981 720.22 41.4801Z" fill="black" fill-opacity="0.3"/>
<path d="M656.055 10.0341C652.008 17.2917 645.149 22.8154 637.354 25.0945C633.679 26.1674 629.592 26.669 626.82 29.383C625.102 31.0648 624.135 33.3844 623.21 35.6345C621.39 40.0651 619.54 44.629 619.442 49.4423C619.344 54.2556 621.404 59.4343 625.592 61.5336C619.756 64.523 619.184 74.5034 624.639 78.183C622.414 83.9299 613.091 80.7201 608.69 84.9158C605.27 88.1778 606.596 94.0205 608.656 98.3351C610.717 102.647 613.329 107.472 611.67 111.966C605.413 109.443 599.154 106.918 592.898 104.395C590.535 109.672 597.327 116.214 602.249 113.401C597.514 122.213 584.884 120.476 576.013 124.646C566.541 129.097 561.445 140.544 551.87 144.752C547.158 146.822 541.799 146.912 537.104 149.026C532.409 151.139 528.353 156.744 530.562 161.523C530.999 162.468 531.675 163.399 531.554 164.437C531.428 165.53 530.483 166.287 529.673 167C521.982 173.782 521.895 185.824 522.433 196.263C519.692 198.385 515.823 195.503 514.313 192.322C512.802 189.144 512.023 185.241 509.13 183.348C506.248 181.46 502.383 182.362 499.23 181.02C496.354 179.793 494.512 176.914 492.847 174.194C489.727 169.096 486.61 163.996 483.491 158.899C480.864 154.604 478.176 150.148 477.442 145.126C476.707 140.101 478.459 134.319 482.821 131.979C485.901 130.326 490.908 127.827 488.676 125.078C488.177 124.463 487.412 124.17 486.681 123.901C481.027 121.822 475.37 119.743 469.717 117.664C471.917 110.615 479.816 106.057 486.77 107.822C489.332 103.589 483.409 98.9469 478.585 99.0281C473.759 99.1122 468.38 100.924 464.464 98.0045C468.108 92.7504 467.917 85.3101 464.98 79.6009C462.045 73.8916 456.758 69.78 451.037 67.1732C448.487 66.0105 445.776 65.1 442.99 65.0595C438.587 64.9928 434.365 67.0834 429.964 67.1124C423.731 67.153 418.04 62.9718 414.467 57.6887C410.893 52.4057 409.062 46.102 407.288 39.9201C412.308 42.7907 418.929 42.953 423.599 39.5054C428.269 36.0578 430.189 28.7973 427.139 23.7694C433.485 22.2993 439.834 20.8292 446.18 19.3591C447.786 18.988 449.426 18.5995 450.816 17.6919C452.59 16.5292 453.787 14.6299 455.396 13.2352C458.482 10.5618 462.737 9.9935 466.74 9.53247C477.453 8.30014 488.163 7.06782 498.874 5.8355C500.931 5.59773 503.047 5.36576 505.049 5.91668C510.313 7.36647 515.086 13.9659 519.812 11.1591C520 9.01343 519.381 6.80106 518.108 5.09611C524.132 2.23132 531.091 3.10989 537.721 3.20848C551.08 3.41145 564.299 0.213221 577.655 0.0102506C590.762 -0.18982 603.902 2.54157 615.916 7.96379C611.897 10.8373 607.308 12.8525 602.518 13.847C605.646 13.6441 608.816 14.2037 611.703 15.4621C609.405 14.4588 598.997 22.9546 597.341 24.4856C603.003 29.0379 615.445 19.6143 621.298 16.7292C632.375 11.2664 643.688 8.14356 656.055 10.0341Z" fill="black" fill-opacity="0.3"/>
<path d="M635.967 157.746C632.968 159.016 630.165 160.776 627.69 162.939C625.397 164.946 622.835 167.477 619.889 166.868C616.901 166.247 615.491 162.806 614.179 159.958C612.867 157.111 610.207 154.043 607.323 155.07C608.89 153.118 610.459 151.164 612.026 149.212C608.29 148.65 604.556 148.084 600.82 147.522C599.906 147.386 598.911 147.2 598.311 146.475C596.91 144.782 599.001 142.274 601.067 141.642C605.717 140.221 610.838 142.381 614.33 145.86C615.791 147.316 617.649 149.157 619.519 148.34C620.755 147.797 621.282 146.321 622.109 145.228C624.09 142.607 627.793 142.262 630.992 142.648C636.39 143.3 647.168 139.206 649.276 145.889C651.641 153.382 640.309 155.908 635.967 157.746Z" fill="black" fill-opacity="0.3"/>
<path d="M170.815 106.291C156.691 112.371 142.04 118.428 126.744 118.234C120.112 118.15 113.553 116.886 107.036 115.625C92.8608 112.884 78.5374 110.098 65.3493 104.064C61.8259 102.452 58.2857 100.584 54.44 100.341C50.143 100.068 45.9917 101.866 42.1347 103.844C30.4462 109.843 19.7387 117.886 10.6065 127.53C20.1059 129.076 28.9354 134.634 34.6283 142.652C30.1407 144.905 24.089 142.831 21.7877 138.253C15.7612 136.444 8.73967 141.373 8.14263 147.836C7.54558 154.299 13.5384 160.516 19.7863 159.919C22.0035 156.877 25.4316 154.81 29.0839 154.317C30.805 157.312 32.5232 160.31 34.2443 163.305C31.2422 167.054 25.9642 167.44 21.3756 168.516C16.7871 169.592 11.6184 172.938 12.1481 177.774C13.0311 185.832 27.9879 186.511 27.332 194.592C27.5535 191.849 58.4735 189.712 43.5194 208.075C41.1761 210.951 37.6527 213.033 34.0312 212.703C35.0375 215.649 34.8105 219.314 32.5681 221.41C30.3257 223.506 25.9305 222.75 25.227 219.714C22.8304 225.011 16.2265 226.267 10.6009 226.841C9.93375 229.181 9.26664 231.524 8.59952 233.864C8.14543 230.944 4.41463 229.216 1.97881 230.764C-0.457004 232.315 -0.68686 236.47 1.52752 238.341C3.58773 240.08 6.58695 239.66 9.19936 239.147C10.1748 238.955 11.2876 238.657 11.7109 237.726C11.9687 237.155 11.8903 236.494 11.9099 235.864C12.008 232.791 14.6092 230.355 17.3898 229.262C20.1704 228.172 23.2088 228.047 26.1043 227.351C30.8919 226.197 35.2057 223.483 39.0346 220.297C43.2027 216.826 46.9531 212.717 51.679 210.122C53.4897 209.127 55.421 208.368 57.1645 207.251C69.9855 199.028 61.8091 184.791 80.7771 182.344C81.0462 185.067 79.2382 187.853 76.7015 188.63C82.7784 193.275 89.4271 178.65 96.5468 181.271C98.5537 182.011 99.8516 183.985 101.575 185.275C104.774 187.668 109.048 187.499 112.978 187.844C128.636 189.222 142.917 201.232 147.419 216.805C154.266 214.715 159.968 222.283 163.376 228.772C169.005 239.486 174.63 250.203 180.259 260.917C183.833 267.719 187.44 274.612 189.296 282.113C191.95 292.841 190.882 304.251 193.363 315.023C195.843 325.795 203.863 336.755 214.565 336.463C216.3 353.341 221.076 369.88 228.58 384.975C224.922 388.814 230.808 394.506 235.812 396.011C240.815 397.516 247.405 401.352 245.218 406.247C251.122 399.453 243.607 389.206 236.42 383.897C229.233 378.588 220.796 369.796 225.295 361.932C227.747 359.375 232.042 362.359 233.196 365.757C234.351 369.155 234.248 373.18 236.566 375.865C238.598 378.217 241.886 378.811 244.509 380.42C254.017 386.26 252.021 402.851 261.224 409.193C264.584 411.507 269.005 412.046 271.917 414.94C274.008 417.019 274.984 419.988 276.352 422.632C281.184 431.978 290.905 437.269 300.068 442.016C302.739 443.399 305.41 444.782 308.084 446.168C323.386 454.093 338.688 462.017 353.989 469.942C355.461 470.705 357.16 471.482 358.69 470.855C364.98 468.28 352.134 456.708 357.473 452.42C349.959 448.671 342.444 444.924 334.929 441.175C339.618 436.843 340.241 428.591 336.255 423.56C339.027 422.885 341.322 420.455 341.917 417.575C338.606 414.015 332.549 416.961 329.979 421.122C327.408 425.285 326.374 430.519 322.91 433.917C315.067 441.61 301.189 433.448 298.156 422.716C295.123 411.985 298.593 400.61 299.751 389.493C300.219 385.002 300.586 379.884 304.023 377.097C311.882 370.73 323.453 384.158 332.574 379.959C336.067 378.353 338.124 374.508 341.412 372.496C347.083 369.028 354.794 372.243 358.724 377.712C362.651 383.183 363.752 390.221 364.739 396.959C366.594 400.108 371.752 396.629 371.463 392.952C371.175 389.278 368.245 386.524 366.314 383.424C361.381 375.511 363.618 363.739 371.079 358.346C377.711 353.55 388.637 351.674 389.066 343.314C389.344 337.912 384.382 333.485 384.178 328.077C383.996 323.319 387.48 319.358 390.728 315.986C399.911 306.449 409.091 296.912 418.274 287.378C420.429 285.14 423.036 282.725 426.071 283.078C429.107 283.432 430.797 288.622 427.91 289.652C438.736 290.084 453.241 287.381 454.11 276.212C449.737 280.179 444.549 283.177 438.993 284.949C438.416 279.631 439.924 274.098 443.105 269.877C439.075 262.688 429.427 260.711 421.758 263.184C414.089 265.661 407.942 271.503 402.072 277.181C410.888 266.42 422.686 257.405 436.23 255.767C441.331 255.15 446.8 255.518 451.237 252.841C457.412 249.118 462.875 239.738 469.098 243.374C464.554 251.621 460.013 259.867 455.469 268.111C460.369 267.734 465.266 267.357 470.166 266.98C472.156 270.494 473.126 274.614 472.921 278.68C478.914 278.248 487.16 274.162 484.483 268.598C483.124 265.771 479.573 265.06 477.212 263.06C470.726 257.562 475.777 246.265 472.529 238.268C470.903 234.27 467.357 231.532 464.111 228.784C450.326 217.095 439.52 201.684 433.065 184.498C431.49 188.578 429.76 192.869 426.352 195.488C422.943 198.109 417.315 198.152 415.072 194.421C413.842 192.377 413.912 189.796 413.273 187.479C411.821 182.231 406.975 178.908 402.479 176.049C397.024 172.578 390.597 168.977 384.545 171.14C378.493 173.303 377.089 184.574 383.415 185.612C377.523 185.832 377.717 195.302 381.078 200.316C384.438 205.329 389.161 211.572 385.941 216.681C383.085 221.21 375.847 220.766 372.971 225.281C370.199 229.633 373.212 235.241 375.32 239.976C377.428 244.711 377.372 252.157 372.43 253.169C368.209 254.033 365.148 248.973 364.358 244.598C363.116 237.709 363.993 230.239 360.882 224.017C357.771 217.791 347.778 214.86 344.647 221.074C342.929 214.741 337.967 209.458 331.899 207.498C326.965 205.903 321.474 206.387 316.788 204.126C309.78 200.745 306.635 192.405 304.132 184.838C313.281 179.427 323.03 173.335 327.106 163.285C328.202 160.58 328.919 157.55 330.991 155.546C332.855 153.742 335.506 153.099 337.58 151.559C339.655 150.019 340.978 146.633 339.114 144.829C341.802 143.13 345.087 142.475 348.193 143.014C353.504 150.469 337.216 163.169 344.885 167.945C349.02 170.519 353.488 165.231 355.623 160.757C358.965 162.151 362.306 163.543 365.647 164.938C369.955 161.316 364.896 154.392 359.96 151.762C355.024 149.132 348.773 144.397 351.248 139.256C355.666 139.175 360.083 139.091 364.501 139.01C364.778 134.646 361.978 130.265 357.986 128.818C360.262 125.19 362.536 121.56 364.812 117.933C362.746 115.578 359.394 114.523 356.408 115.282C365.353 113.92 374.087 111.093 382.185 106.935C388.814 114.761 395.051 122.943 400.861 131.433C401.795 132.796 402.753 134.292 402.72 135.959C402.644 139.604 398.386 141.161 395.308 142.942C392.231 144.719 390.372 150.367 393.789 151.266C393.321 153.963 389.408 153.937 387.208 152.417C385.007 150.895 382.984 148.503 380.34 148.662C375.343 148.961 376.164 158.077 380.946 159.62C385.728 161.16 390.613 157.967 394.672 154.934C404.015 163.653 415.151 170.302 427.123 174.306C422.293 173.265 418.772 167.846 419.664 162.827C425.27 164.497 430.61 167.118 435.408 170.554C439.481 165.428 434.262 157.982 428.925 154.305C423.585 150.628 416.9 146.076 417.738 139.497C424.743 139.32 431.692 143.452 435.069 149.802C437.724 145.899 440.381 141.993 443.035 138.091C440.033 127.82 420.88 130.966 418.885 120.435C418.501 118.402 418.887 116.071 417.657 114.436C415.742 111.896 411.916 113.14 408.805 113.041C397.918 112.69 391.328 93.8284 381.279 98.1807C385.478 90.0445 373.535 79.7452 366.552 85.4805C370.387 86.9564 374.561 89.0035 375.957 92.9818C377.355 96.96 373.277 102.4 369.709 100.326C366.101 98.23 367.822 92.3177 365.832 88.5657C363.407 83.9959 356.111 84.9064 353.176 89.1427C350.242 93.379 350.609 99.1521 351.783 104.223C349.359 104.163 346.934 104.099 344.512 104.038C343.98 96.9455 345.314 89.711 348.333 83.3204C345.491 78.9362 339.035 83.1464 335.91 87.3189C332.625 91.703 329.239 96.3047 328.216 101.747C327.19 107.193 329.34 113.708 334.354 115.668C337.572 116.926 341.289 116.123 344.49 117.428C351.811 120.412 348.927 134.547 341.062 134.217C338.632 130.085 337.21 125.327 336.964 120.496C333.174 121.644 329.642 123.685 326.71 126.42C322.868 116.605 317.519 107.422 310.929 99.3202C312.496 96.1858 314.063 93.0513 315.63 89.9169C321.937 92.7701 330.021 85.785 328.429 78.855C323.187 77.3356 317.679 75.8046 312.367 77.0456C307.056 78.2838 302.145 83.3058 302.885 88.8846C303.331 92.2307 305.626 95.0085 306.473 98.2706C307.322 101.533 305.427 106.091 302.206 105.543C300.525 113.47 316.763 113.659 317.489 121.743C317.999 127.411 310.562 129.641 305.06 129.563C306.669 135.026 306.419 141.054 304.368 146.354C300.239 138.337 302.498 127.403 309.433 121.83C305.27 115.21 295.647 113.125 289.268 117.46C291.653 121.232 295.432 124.036 299.647 125.164C297.422 127.832 295.196 130.502 292.971 133.17C288.149 129.583 281.545 132.399 275.617 132.75C269.689 133.1 262.482 126.327 266.67 121.972C263.105 119.742 258.269 118.979 254.88 121.493C251.494 124.004 251.211 130.383 254.99 132.201C247.113 134.295 234.057 119.31 228.358 130.792C224.79 119.11 219.052 115.627 207.748 115.03C200.244 114.633 177.999 108.886 174.168 115.41C173.809 114.587 170.667 106.358 170.815 106.291Z" fill="black" fill-opacity="0.3"/>
<path d="M191.661 75.6507C187.392 76.1233 185.012 81.0758 184.466 85.4802C183.919 89.8847 184.334 94.6168 182.237 98.4935C181.719 99.4504 181.046 100.361 180.881 101.442C180.404 104.539 184.289 106.52 187.283 106.027C196.006 104.586 201.483 92.2537 210.192 93.7876C210.279 96.2058 210.366 98.6241 210.45 101.042C216.185 101.095 221.928 100.233 227.414 98.5052C229.084 99.6244 228.148 102.562 226.365 103.472C224.582 104.386 222.475 104.078 220.493 104.267C218.511 104.455 216.255 105.566 216.042 107.613C219.871 106.465 223.876 105.305 227.792 106.079C231.708 106.853 235.455 110.222 235.326 114.343C229.774 114.085 224.198 114.293 218.679 114.969C221.718 118.704 227.231 118.26 231.924 118.785C236.613 119.31 242.183 123.198 240.526 127.768C246.88 120.841 257.481 118.518 266.005 122.183C268.136 123.099 270.157 124.355 272.419 124.825C274.681 125.294 277.355 124.755 278.619 122.76C279.883 120.765 278.625 117.376 276.32 117.454C279.308 117.028 281.929 114.569 282.627 111.53C277.487 113.258 271.3 110.312 269.226 105.151C267.345 100.468 268.461 94.4487 265.089 90.7691C268.029 91.6854 270.958 88.0638 270.246 84.9728C269.537 81.8819 266.317 79.9478 263.244 79.8695C261.221 79.8173 259.057 80.5132 257.863 82.2037C256.669 83.8942 256.89 86.6662 258.642 87.71C256.273 86.5183 253.908 85.3237 251.539 84.129C250.597 90.1254 261.989 93.7034 259.317 99.1141C257.613 102.562 251.817 100.387 251.13 96.5799C250.679 94.0746 251.236 90.7401 249.019 89.6324C244.789 87.5186 241.703 98.25 237.661 95.7766C237.916 93.37 238.171 90.9633 238.424 88.5596C233.213 88.1305 227.859 90.0761 224.056 93.7846C224.529 91.4534 225 89.1221 225.474 86.788C219.82 83.5433 214.217 95.0373 208.112 92.8539C213.984 94.9561 227.133 83.0852 216.793 78.0602C214.315 76.854 209.141 78.7358 206.388 78.5357C201.55 78.182 196.519 75.1142 191.661 75.6507Z" fill="black" fill-opacity="0.3"/>
<path d="M217.351 50.7686C213.34 48.6954 208.46 50.9455 205.06 53.9639C201.657 56.9853 198.829 60.8591 194.764 62.8193C192.841 63.7471 190.565 64.3183 189.377 66.1364C196.127 66.0407 202.871 65.5681 209.573 64.7214C209.194 67.0787 208.053 69.294 206.374 70.9323C209.514 72.1182 212.126 68.0298 212.558 64.6025C212.692 63.5355 212.816 62.3292 213.637 61.671C214.296 61.1404 215.198 61.1375 216.025 60.9983C218.867 60.5257 221.368 57.7363 221.023 54.7787C220.675 51.8211 216.922 49.7421 214.604 51.508" fill="black" fill-opacity="0.3"/>
<path d="M238.427 70.2113C239.254 69.7531 239.708 68.6745 239.467 67.735C235.274 67.8771 231.279 64.2758 230.845 59.9583C228.457 58.3809 224.807 59.6075 223.773 62.336C222.739 65.0645 224.608 68.5324 227.394 69.0543C223.33 70.8521 219.266 72.6498 215.201 74.4475C222.966 78.7766 232.176 69.3501 240.804 71.2406C240.801 72.3192 240.795 73.3979 240.793 74.4765C237.07 74.5229 233.401 76.3004 230.979 79.226C237.404 79.8175 243.999 78.1561 249.44 74.5751C250.979 73.5632 252.506 72.3685 254.312 72.1047C255.898 71.8727 257.482 72.3917 259.068 72.6237C262.819 73.1717 267.575 70.9738 267.441 67.0565C264.91 66.1808 262.208 65.8387 259.548 66.0591C258.732 60.9674 252.585 57.6677 248.095 59.909C248.167 63.4146 249.748 66.8593 252.33 69.1326C249.779 71.4407 245.793 71.8582 242.847 70.1213C241.449 69.2979 240.162 68.0076 238.553 67.9989C236.826 67.9902 234.581 69.2805 233.704 67.7408" fill="black" fill-opacity="0.3"/>
<path d="M243.264 44.8031C236.935 44.0231 230.399 45.1481 224.655 48.0042C227.758 49.454 230.864 50.9009 233.967 52.3507C234.673 52.6813 235.41 53.0176 236.184 53.0031C236.868 52.9915 237.518 52.7074 238.149 52.4261C241.14 51.0981 244.133 49.7672 247.124 48.4363C246.606 47.6505 246.087 46.8676 245.569 46.0818C246.903 47.0184 248.918 45.6556 249.005 43.9912C249.092 42.324 247.732 40.8597 246.194 40.3667C244.652 39.8738 242.984 40.1435 241.414 40.5291C239.59 40.9786 237.799 41.5788 236.066 42.3268C236.977 44.3044 238.777 45.8179 240.831 46.337C240.865 47.117 240.899 47.8969 240.932 48.6798" fill="black" fill-opacity="0.3"/>
<path d="M287.508 45.7818C286.131 45.8543 285.313 44.1639 285.251 42.7402C285.19 41.3165 285.49 39.7826 284.808 38.5416C283.138 35.4883 278.614 37.75 275.267 37.1933C273.277 36.8627 271.64 35.4245 269.751 34.6996C267.861 33.9747 265.182 34.3807 264.638 36.3872C264.03 38.6315 266.687 40.4379 268.941 40.4843C271.194 40.5307 273.518 39.7014 275.659 40.4408C276.06 40.58 276.458 40.783 276.711 41.1309C278.303 43.3288 272.582 44.9352 273.109 47.626C273.369 48.9482 274.97 49.3628 276.265 49.5049C278.191 49.7195 280.116 49.9311 282.042 50.1457C284.046 50.369 286.266 50.5343 287.878 49.2816C289.489 48.029 289.529 44.7873 287.572 44.2857" fill="black" fill-opacity="0.3"/>
<path d="M297.7 66.8074C298.824 65.4504 298.137 63.1858 296.73 62.1477C295.323 61.1068 293.487 60.9763 291.76 60.9647C286.717 60.9299 281.669 61.5997 276.8 62.9538C275.292 63.3743 273.725 63.8614 272.198 63.5251C270.67 63.1887 269.255 61.6838 269.594 60.1064C267.508 62.5334 270.017 66.5667 273.05 67.4047C276.083 68.2427 279.295 67.2742 282.429 67.4482C285.563 67.6222 289.156 69.8519 288.825 73.0821C288.747 73.8534 288.45 74.6623 288.755 75.3698C289.122 76.2136 290.168 76.4688 291.062 76.4253C295.236 76.2223 298.428 71.1336 296.909 67.1089C295.906 67.2713 294.835 66.6682 294.417 65.7113C296.248 64.9661 297.68 63.2496 298.126 61.2663C294.72 59.9354 290.748 60.2543 287.584 62.113" fill="black" fill-opacity="0.3"/>
<path d="M295.927 84.6676C297.662 83.3628 296.516 80.1559 294.459 79.5267C292.401 78.8974 290.229 80.0254 288.53 81.3795C288.424 83.2033 288.314 85.0272 288.208 86.8539C286.173 86.4074 283.97 86.851 282.243 88.0543C285.251 88.8865 287.72 91.5367 288.407 94.6799C285.545 96.7096 281.01 95.2859 279.723 91.9485C279.126 90.3972 278.91 88.3124 277.374 87.7992C275.205 87.0714 273.938 90.6262 274.938 92.7458C277.587 98.3507 285.651 97.9854 290.153 102.138C291.77 103.631 294.226 105.762 295.597 104.025C296.687 102.645 295.269 100.691 293.948 99.5424C295.543 99.7512 297.239 99.902 298.685 99.18C300.132 98.458 301.135 96.5298 300.35 95.08C299.944 94.3261 299.176 93.8767 298.523 93.3345C296.138 91.3454 295.271 87.6339 296.519 84.7372C295.658 84.3632 294.8 83.9862 293.94 83.6122" fill="black" fill-opacity="0.3"/>
<path d="M374.917 69.8035C369.468 66.4168 362.707 65.373 356.54 66.9648C352.083 68.116 347.918 70.5748 343.335 70.9083C336.636 71.3925 330.228 67.046 326.576 61.2179C331.652 57.6195 339.077 64.6771 344.426 61.5281C345.967 60.6206 347.038 58.9736 348.658 58.2313C350.312 57.4716 352.218 57.7877 354.001 58.1182C362.567 59.7043 371.135 61.2933 379.701 62.8793C380.711 59.0896 377.58 54.7576 373.779 54.6851C378.266 52.8149 382.757 50.9447 387.244 49.0744C389.509 48.1321 391.934 47.0476 393.17 44.87C394.403 42.6895 393.529 39.155 391.107 38.8389C401.442 35.1187 411.454 30.4446 420.987 24.8861C420.028 23.1696 419.067 21.453 418.108 19.7364C424.737 20.4439 431.608 18.3447 436.804 14.0272C429.362 13.3922 421.814 14.1229 414.616 16.1729C426.997 17.7879 439.815 15.6336 451.063 10.049C447.021 6.40418 439.666 11.1479 435.683 7.43353C434.489 6.3201 433.898 4.63832 432.681 3.55098C431.184 2.21427 429.057 2.02871 427.084 1.91853C406.879 0.799291 386.588 1.39081 366.477 3.68728C363.158 4.06712 358.973 5.39223 358.783 8.83983C353.967 8.63396 349.151 8.42808 344.336 8.22221C340.871 13.05 334.049 14.9232 328.726 12.5107C327.521 14.4853 326.318 16.4599 325.116 18.4374C328.479 20.8354 332.684 21.9372 336.742 21.4878C339.226 26.7795 347.273 27.9394 351.06 23.5523C352.745 29.5486 361.412 28.4236 366.555 25.1529C371.696 21.8821 378.3 17.7067 383.116 21.4704C376.719 26.5911 368.523 29.2442 360.445 28.8093C362.469 31.3261 364.489 33.8458 366.513 36.3655C361.552 36.6816 357.151 33.4196 352.809 30.9114C348.467 28.4033 342.78 26.6404 338.769 29.6791C342.396 32.7382 346.02 35.7972 349.648 38.8592C339.655 33.4138 329.665 27.9713 319.672 22.5259C316.743 20.9311 313.357 19.2928 310.254 20.4845C307.151 21.6763 306.218 27.2841 309.41 28.1858C306.935 28.6556 304.802 30.6969 304.163 33.2166C310.083 33.7095 315.905 35.4116 321.197 38.1981C318.705 39.0245 316.216 39.8537 313.724 40.6801C319.414 42.5967 325.104 44.5134 330.797 46.4329C331.958 46.8243 333.281 47.2013 334.349 46.5924C335.422 45.9777 335.809 44.6178 336.409 43.5072C338.197 40.193 342.789 38.9172 345.939 40.8599C345.216 42.6374 344.493 44.4119 343.772 46.1893C346.461 46.2067 349.149 46.2212 351.84 46.2386C351.884 47.7638 351.929 49.2919 351.974 50.8171C355.873 51.4405 359.881 51.3245 363.741 50.4778C362.328 55.8855 354.741 56.3611 350.009 53.6413C345.278 50.9185 341.547 46.2531 336.336 44.7279C337.998 48.7497 340.661 52.3248 343.999 55.0128C337.048 53.8558 329.813 54.5691 323.198 57.0686C322.551 55.6275 321.906 54.1835 321.259 52.7424C315.821 55.0766 316.639 63.2215 318.411 69.0293C318.932 70.7343 319.476 72.4857 320.569 73.8717C323.047 77.0119 327.473 77.3743 331.389 77.4932C337.283 77.6672 343.178 77.8441 349.073 78.0181C357.277 78.25 375.231 82.2398 374.917 69.8035Z" fill="black" fill-opacity="0.3"/>
<path d="M310.257 63.2467C311.872 62.0927 314.795 63.067 315.541 61.188C316.101 59.773 314.644 58.4276 313.354 57.6795C312.065 56.9314 310.532 55.7687 310.885 54.2841C309.736 54.4523 308.533 54.1942 307.544 53.5708C310.007 52.901 312.471 52.2283 314.935 51.5585C315.874 51.3033 317.065 50.4248 316.51 49.6013C316.32 49.32 315.978 49.1983 315.656 49.1142C314.128 48.7082 312.466 48.656 311.126 47.7978C309.786 46.9395 309.035 44.7851 310.204 43.6891C309.36 43.6108 308.514 43.5325 307.67 43.4513C307.633 42.7583 307.597 42.0624 307.56 41.3694C303.193 41.2476 298.832 40.8794 294.501 40.2646C293.868 43.286 296.679 46.5075 299.65 46.1653C300.13 46.1102 300.662 45.9913 301.06 46.2755C301.413 46.5277 301.52 47.0062 301.705 47.4092C302.263 48.6067 303.807 49.1838 304.976 48.6299C304.634 49.4998 304.054 50.2711 303.322 50.8278C304.732 51.6049 306.282 52.1065 307.869 52.3037C306.619 53.3302 305.142 54.0551 303.58 54.4059C304.222 54.9452 304.867 55.4845 305.509 56.0239C303.86 56.0587 302.212 56.0906 300.564 56.1254C300.062 57.7288 301.573 59.2685 303.087 59.8919C304.763 60.582 312.917 65.952 308.026 68.3471C305.248 69.707 304.085 64.9662 305.066 63.1539C306.619 66.8683 306.145 72.047 308.867 75.2974C310.851 77.6664 313.873 78.1071 315.801 74.9813C319.14 69.5765 311.064 67.9557 310.257 63.2467Z" fill="black" fill-opacity="0.3"/>
<path d="M359.08 481.548C357.143 486.918 363.388 493.19 368.52 491.024C370 490.401 371.29 489.264 372.865 488.977C377.274 488.18 379.808 493.918 380.741 498.447C381.809 503.629 382.852 509.164 380.985 514.096C378.748 520.008 372.627 524.134 371.909 530.441C371.323 535.594 374.608 540.911 372.921 545.797C372.156 548.013 370.452 549.773 369.65 551.976C368.212 555.923 369.93 560.278 371.618 564.117C377.235 576.878 382.852 589.639 388.469 602.397C389.733 605.268 391.087 608.257 393.509 610.171C395.438 611.693 397.862 612.38 399.906 613.729C403.247 615.929 405.287 619.673 407.196 623.262C410.725 629.903 414.299 636.664 415.807 644.079C417.864 654.192 415.928 664.666 413.991 674.805C411.16 689.631 408.326 704.457 405.495 719.285C402.378 735.595 399.264 751.908 396.147 768.218C399.48 766.128 401.955 762.622 402.863 758.702C404.452 769.309 402.431 780.455 397.232 789.742C396.78 785.738 396.329 781.733 395.878 777.729C392.066 786.239 390.098 795.628 390.16 805.008C390.171 806.696 390.311 808.546 391.443 809.761C392.52 810.915 394.187 811.17 395.561 811.912C398.543 813.527 399.822 817.819 398.235 820.889C399.813 821.266 401.391 821.643 402.966 822.023C405.411 824.024 399.642 826.828 399.667 830.052C399.676 831.363 400.704 832.392 401.655 833.259C406.117 837.327 410.579 841.392 415.042 845.46C418.15 846.411 421.382 847.371 424.586 846.855C427.787 846.339 430.946 843.895 431.243 840.557C431.65 835.973 427.042 832.911 424.062 829.492C419.437 824.186 418.31 816.38 419.476 809.337C420.642 802.297 423.812 795.805 426.943 789.438C424.92 788.649 422.896 787.86 420.872 787.074C421.021 782.371 425.66 779.454 428.592 775.856C433.92 769.317 433.334 758.493 427.333 752.607C429.553 750.989 431.773 749.371 433.993 747.753C435.815 750.766 437.637 753.776 439.459 756.785C444.014 753.004 445.718 745.973 443.431 740.417C453.751 743.154 465.412 734.406 466.104 723.411C463.551 723.321 461.533 720.285 462.365 717.786C463.198 715.287 466.595 714.182 468.661 715.739C467.523 718.792 470.892 722.121 474.031 721.724C477.171 721.323 479.519 718.406 480.576 715.321C481.633 712.236 481.723 708.902 482.309 705.686C483.25 700.528 485.507 695.633 488.789 691.629C491.519 688.3 495.012 685.464 496.604 681.422C497.77 678.462 497.778 675.177 498.272 672.022C499.886 661.728 507.222 652.609 516.713 649.098C517.105 653.699 524.129 652.748 527.423 649.631C532.345 644.972 535.667 638.537 536.673 631.715C537.553 625.727 536.774 619.267 539.512 613.917C540.673 611.653 542.427 609.681 543.092 607.21C543.661 605.094 543.361 602.847 543.473 600.654C544.073 588.879 556.269 579.583 554.848 567.886C553.925 560.289 547.537 554.847 541.634 550.231C532.617 543.179 523.031 535.881 511.816 534.434C504.693 533.515 497.027 534.967 490.625 531.612C493.473 531.433 495.494 528.356 495.637 525.41C495.78 522.461 494.549 519.652 493.341 516.975C492.528 515.169 491.713 513.36 490.897 511.553C487.589 504.214 482.166 495.6 474.418 496.751C472.111 497.093 469.586 498.291 467.621 496.994C465.821 495.806 465.622 493.219 464.647 491.256C460.826 483.566 446.346 486.704 444.151 478.359C443.579 476.184 444.056 473.548 442.545 471.928C441.32 470.611 439.327 470.588 437.561 470.657C429.553 470.962 421.542 471.269 413.534 471.574C413.265 474.824 411.213 477.854 408.348 479.223C408.766 481.131 409.184 483.036 409.601 484.944C408.945 488.33 403.44 487.916 402.002 484.799C400.561 481.682 401.952 477.982 403.645 475.001C405.338 472.023 407.412 468.987 407.367 465.531C403.732 463.736 400.054 467.645 397.431 470.805C394.807 473.966 389.666 476.709 387.261 473.366C387.57 476.805 387.881 480.246 388.189 483.685C383.026 488.348 373.723 486.309 370.83 479.881C368.834 482.433 366.639 485.124 363.584 486.014C360.529 486.904 356.532 484.921 356.543 481.638C358.104 488.736 364.89 494.202 371.926 494.028" fill="black" fill-opacity="0.3"/>
<path d="M351.8 413.535C354.247 416.084 358.028 412.248 361.473 411.804C364.8 411.375 367.527 414.269 370.025 416.585C372.522 418.902 376.416 420.848 379.011 418.653C380.256 424.02 387.468 426.699 391.729 423.376C391.342 425.27 393.752 426.566 395.597 426.229C397.441 425.896 399.084 424.693 400.951 424.553C403.647 424.35 406.251 426.827 406.288 429.622C406.346 430.645 404.959 431.022 404 430.764C403.042 430.506 401.976 429.993 401.13 430.529C400.536 430.906 400.306 431.669 399.894 432.249C398.391 434.366 395.232 433.559 392.833 432.704C390.434 431.846 387.02 431.602 386.106 434.05C393.64 435.589 401.486 435.47 408.973 433.699C408.356 434.308 408.81 435.485 409.589 435.844C410.369 436.201 411.268 436.001 412.098 435.795C415.294 435.001 418.489 434.206 421.687 433.409C423.61 434.615 426.181 434.624 428.109 433.429C427.977 434.337 427.843 435.247 427.711 436.155C431.464 437.836 436.308 436.227 438.413 432.6C433.096 431.689 427.781 430.779 422.464 429.868C418.649 429.216 414.736 428.526 411.406 426.499C408.121 424.498 405.511 421.259 401.884 420.042C396.822 418.342 391.008 421.007 386.086 418.914C381.318 416.884 378.322 410.748 373.17 410.65C371.497 410.618 369.728 411.259 368.206 410.537C364.349 408.704 364.856 404.92 359.858 406.892C358.917 407.26 352.641 414.411 351.8 413.535Z" fill="black" fill-opacity="0.3"/>
<path d="M778.923 309.232C776.496 314.405 775.394 320.164 776.35 325.818C777.992 335.558 785.3 344.561 783.24 354.222C780.053 353.361 776.866 352.497 773.679 351.662" fill="black" fill-opacity="0.3"/>
<path d="M813.173 178.875C812.977 179.484 812.73 180.067 812.486 180.65Z" fill="black" fill-opacity="0.3"/>
<path d="M813.784 175.021C813.736 172.687 812.777 170.506 811.309 168.68Z" fill="black" fill-opacity="0.3"/>
<path d="M453.182 617.407C365.722 606.315 281.217 572.682 210.054 520.641C181.506 499.765 153.574 473.492 146.347 438.872C140.73 411.969 148.808 383.529 163.482 360.292C178.156 337.053 198.968 318.359 220.582 301.381C371.011 183.232 739.764 133.327 779.676 184.199C819.588 235.071 738.94 381.388 741.379 462.14C741.76 474.762 743.111 487.975 750.147 498.464C756.767 508.336 767.747 514.592 779.144 517.967C820.794 530.309 864.019 507.961 901.711 486.366C959.775 453.103 1021.46 358.941 1088.36 357.744C1268.1 354.527 1169.1 536.966 1203.65 654.283C1214.38 690.714 1273.42 672.814 1268.94 669.787" stroke="#0D0D0D" stroke-miterlimit="10" stroke-linecap="round" stroke-dasharray="2 2"/>
</svg>
